<?xml version="1.0" encoding="utf-8"?>
<!-- Generator: Adobe Illustrator 25.2.1, SVG Export Plug-In . SVG Version: 6.00 Build 0)  -->
<svg version="1.1" id="Layer_1" xmlns="http://www.w3.org/2000/svg" xmlns:xlink="http://www.w3.org/1999/xlink" x="0px" y="0px"
	 viewBox="0 0 500 500" style="enable-background:new 0 0 500 500;" xml:space="preserve">
<style type="text/css">
	.st0{fill:#FFFFFF;}
</style>
<g>
	<path class="st0" d="M312.9,158.7c0,0.5-0.1,1-0.1,1.4c0,29.2,0,58.5,0,87.7c0,1.2-0.3,1.4-1.4,1.4c-93.2,0-186.4,0-279.7,0
		c0-0.2,0-0.4,0-0.7c0.3-0.1,0.4-0.4,0.5-0.7c0.6-1.7,1.3-3.3,1.9-5c4.2-10.8,8.5-21.6,12.7-32.4c3.6-9.2,7.3-18.4,10.9-27.7
		c2.1-5.2,4.1-10.5,6.1-15.7c1.1-2.8,2.3-5.5,3.2-8.4C149.1,158.7,231,158.7,312.9,158.7z M266.2,208.8c2.4,3,4.6,5.7,6.7,8.4
		c4,5,8,10.1,11.8,15.2c1.3,1.7,2.6,2.5,4.7,2.3c2.3-0.2,4.6,0,7.1,0c-7.2-9.2-14.3-18.2-21.5-27.3c1.9-0.5,3.8-0.7,5.6-1.3
		c6.9-2.4,11.3-7.8,11.3-15.5c0-5.1-1.6-9.4-5.7-12.6c-2.6-2.1-5.6-3.2-9-3.8c-2.5-0.4-5.1-0.7-7.6-0.8c-3.6-0.2-7.2,0-10.8-0.1
		c-0.9,0-1,0.3-1,1.1c0,12.5,0,25,0,37.5c0,7.2,0,14.4,0,21.6c0,1,0.3,1.2,1.2,1.2c2.1-0.1,4.1-0.1,6.2,0c0.8,0,1-0.2,1-1
		c0-5.9,0-11.8,0-17.6C266.2,213.6,266.2,211.4,266.2,208.8z M173.4,222c0-1.4,0-2.9,0-4.3c0-0.3,0.2-0.8-0.2-1
		c-0.4-0.2-0.6,0.2-0.9,0.5c-1,1.2-2,2.4-3,3.5c-2.5,2.6-5.7,4.3-9,5.6c-5,1.9-10.1,2.4-15.4,1c-5.9-1.5-10.6-4.8-14.4-9.6
		c-4.7-5.9-5.7-12.6-3.9-19.8c1.4-5.3,4.6-9.4,8.8-12.8c3.3-2.7,7.1-4.5,11.3-5.1c6.2-0.9,12.1,0.1,17.5,3.3
		c1.9,1.1,3.6,2.4,5.1,3.9c1.1,1.1,2.2,2.4,3.1,3.7c0.2,0.3,0.4,0.6,0.8,0.4c0.4-0.2,0.2-0.5,0.2-0.8c0-2.5-0.1-5.1,0-7.6
		c0.1-1.5-0.3-2.6-1.6-3.4c-0.6-0.4-1.1-0.9-1.7-1.3c-4.5-3.3-9.5-5.1-15-5.7c-3.8-0.4-7.6-0.3-11.4,0.6c-6,1.3-11.2,4.1-15.7,8.3
		c-5.4,5-8.8,11-9.7,18.4c-0.5,3.9-0.3,7.7,0.7,11.6c1.2,4.9,3.8,9,7.1,12.7c2.5,2.7,5.4,5,8.6,6.8c5.2,3,10.8,4.2,16.7,4.3
		c2.6,0,5.2-0.3,7.7-0.9c5-1.3,9.6-3.5,13.6-6.8c0.5-0.4,0.6-0.7,0.6-1.3C173.4,225,173.4,223.5,173.4,222z M83.6,190.6
		c2.8,6.2,5.4,12.1,8,18c3.9,8.7,7.8,17.5,11.7,26.2c0.2,0.5,0.5,0.7,1,0.6c2.1,0,4.3,0,6.4,0c0.9,0,0.8-0.3,0.6-0.9
		c-0.9-1.9-1.7-3.7-2.6-5.6c-2.9-6.5-5.7-13-8.6-19.4c-5-11.2-9.9-22.4-14.9-33.5c-0.5-1.1-1-2.2-1.7-3.6
		c-9.4,21.1-18.8,42-28.1,63.1c2.4,0,4.6-0.1,6.8,0c1,0,1.5-0.2,1.9-1.2c5.3-11.9,10.6-23.8,15.9-35.6
		C81.1,196.1,82.3,193.4,83.6,190.6z M215.3,190.6c0.8,1.9,1.6,3.6,2.3,5.3c2.9,6.5,5.7,13,8.6,19.4c2.9,6.5,5.8,12.9,8.7,19.4
		c0.2,0.4,0.2,0.8,0.8,0.8c2.5,0,4.9,0,7.6,0c-9.4-21.1-18.7-42-28-63c-0.3,0.5-0.4,0.7-0.6,0.9c-2.3,5.2-4.6,10.3-6.9,15.5
		c-3.8,8.6-7.6,17.2-11.5,25.8c-1.6,3.6-3.2,7.1-4.8,10.7c-1.4,3.1-2.7,6.1-4.2,9.2c-0.3,0.6-0.3,0.9,0.5,0.9c2,0,4.1-0.1,6.1,0
		c0.9,0,1.3-0.3,1.6-1c3-6.9,6.1-13.7,9.2-20.6c2.7-6.1,5.4-12.3,8.2-18.4C213.8,193.9,214.5,192.3,215.3,190.6z"/>
	<path class="st0" d="M324.4,203.9c0-10,0-20,0-30c0-0.9,0.3-1.2,1.2-1.1c4.8,0,9.6-0.1,14.4,0.1c4.8,0.1,9.3,1.3,12.9,4.8
		c2.4,2.4,3.6,5.3,4.2,8.5c0.5,3.1,0.5,6.3-0.4,9.4c-0.6,1.9-1.4,3.6-2.8,5.1c-0.6,0.6-0.6,0.9,0.2,1.3c4.7,2.6,7.5,6.6,8.3,11.9
		c0.9,5.7-0.3,10.9-4.3,15.2c-2.3,2.5-5.3,4.1-8.6,5.1c-3.2,0.9-6.5,1.1-9.8,1.1c-4.7,0-9.4,0-14.1,0c-1,0-1.2-0.3-1.2-1.2
		C324.4,224,324.4,214,324.4,203.9z M332.6,217.1c0,3.1,0,6.3,0,9.4c0,0.7,0.2,0.9,0.9,0.9c3.4,0,6.8,0,10.3,0c2.4,0,4.6-0.6,6.6-2
		c3.3-2.4,4.6-5.6,4.2-9.7c-0.3-3.4-2.6-6.4-5.8-7.4c-4.1-1.3-8.4-1.3-12.6-1.2c-0.8,0-1.6,0.2-2.4,0c-0.8-0.2-1.2,0.1-1.1,1
		C332.6,211,332.6,214,332.6,217.1z M332.6,189.8c0,1.4,0,2.8,0,4.2c0,1.4,0,2.8,0,4.2c0,0.7,0.1,0.9,0.8,0.9c2.5,0,4.9,0,7.4,0
		c3.9-0.1,7-2.5,8-6c0.5-1.8,0.5-3.6,0.3-5.3c-0.4-3.3-2.7-5.9-6.1-6.5c-3.2-0.6-6.3-0.6-9.5-0.6c-0.7,0-0.9,0.2-0.9,0.9
		C332.6,184.2,332.6,187,332.6,189.8z"/>
	<path class="st0" d="M457,196.1c0,6.7,0.1,13.4,0,20.1c-0.1,5.5-2.2,10.3-6.4,14c-5.1,4.5-11.2,5.7-17.8,5.2
		c-4.2-0.4-8.1-1.7-11.5-4.4c-4.6-3.6-7-8.4-7.2-14.2c-0.5-14.2-0.1-28.3-0.2-42.5c0-0.8,0.2-0.9,0.9-0.9c2.1,0,4.2,0,6.3,0
		c0.9,0,0.8,0.5,0.8,1.1c0,6.9,0,13.8,0,20.6c0,6.8-0.2,13.7,0.2,20.5c0.3,5.8,2.7,9.9,9.4,11.6c5.2,1.4,9.9,0.2,14.1-3.1
		c0.9-0.7,1.8-1.7,2-2.8c0.2-1.1,1-2,1-3.2c0-1.2,0.3-2.4,0.3-3.6c0.1-1.2,0.1-2.4,0.1-3.6c0-9.2,0-18.4,0-27.6c0-2.9,0-5.7,0-8.6
		c0-0.9,0.1-1.3,1.2-1.3c1.9,0.1,3.8,0.1,5.7,0c0.9,0,1.1,0.2,1.1,1.1C457,181.7,457,188.9,457,196.1z"/>
	<path class="st0" d="M376.7,204.1c0-10,0-20,0-30c0-0.9,0.2-1.2,1.2-1.2c2,0.1,4,0.1,6,0c0.9,0,1.1,0.3,1.1,1.1
		c0,17.4,0,34.7,0,52.1c0,0.9,0,1.3,1.2,1.2c6.6-0.1,13.2-0.1,19.8-0.1c1,0,1.5,0.3,1.4,1.5c-0.1,1.8-0.1,3.7,0,5.5
		c0,0.7-0.1,1-0.9,1c-9.6,0-19.1,0-28.7,0c-0.8,0-0.9-0.4-0.9-1C376.8,224.2,376.8,214.2,376.7,204.1
		C376.8,204.1,376.8,204.1,376.7,204.1z"/>
	<path class="st0" d="M377.2,266.4c0,4.3,0,8.5,0,12.7c0,0.9-0.1,1.2-1.1,1.2c-2.7-0.1-2.7,0-2.7-2.7c0-5.7,0-11.4,0-17.1
		c0-0.9,0.2-1.1,1.1-1.2c1.6-0.1,2.5,0.4,3.5,1.7c3.3,4.2,6.7,8.2,10,12.3c0.4-0.3,0.2-0.6,0.2-0.8c0-4,0-8.1,0-12.1
		c0-0.9,0.3-1,1.1-1c2.8,0,2.8,0,2.8,2.8c0,5.7,0,11.4,0,17.1c0,0.8-0.1,1.1-1,1.2c-1.6,0.1-2.6-0.4-3.6-1.7
		c-3-3.9-6.2-7.6-9.3-11.4C377.9,267,377.8,266.6,377.2,266.4z"/>
	<path class="st0" d="M232.9,280.3c-1.5,0-2.7,0-3.9,0c-0.5,0-0.6-0.4-0.8-0.7c-1.1-1.6-2.2-3.2-3.3-4.8c-0.3-0.5-0.7-0.7-1.3-0.7
		c-1.1,0.1-2.3,0.1-3.4,0c-1-0.1-1.4,0.2-1.3,1.3c0.1,1.4,0,2.7,0,4.1c0,0.6-0.2,0.8-0.8,0.8c-3.1,0.1-3.1,0.1-3.1-2.9
		c0-5.7,0-11.3,0-17c0-0.9,0.2-1.1,1.1-1.1c3.4,0.1,6.8-0.3,10.1,0.3c5.7,0.9,8.3,7,5.1,11.5c-0.6,0.9-1.4,1.5-2.3,2
		c-0.7,0.3-0.8,0.6-0.3,1.2C230,276.1,231.3,278.1,232.9,280.3z M218.8,266.8c0,1.2,0,2.3,0,3.5c0,0.3,0,0.7,0.5,0.7
		c2-0.1,4,0.2,5.9-0.2c2.2-0.5,3.4-2,3.4-4.2c-0.1-2.2-1.4-3.6-3.7-4c-1.8-0.3-3.6-0.1-5.4-0.2c-0.6,0-0.7,0.3-0.7,0.8
		C218.8,264.4,218.8,265.6,218.8,266.8z"/>
	<path class="st0" d="M287.6,280.3c-1.5,0-2.7,0-4,0c-0.5,0-0.8-0.3-1.1-0.6c-2.1-2.5-4.2-4.9-6.3-7.4c-0.5-0.6-0.7-0.6-1.3-0.1
		c-2.1,1.7-3.1,3.8-2.6,6.5c0,0.2,0,0.5,0,0.8c0.1,0.6-0.1,0.8-0.8,0.8c-3.1,0.1-3.1,0.1-3.1-3c0-5.7,0-11.3,0-17c0-0.8,0.2-1.1,1-1
		c0.9,0.1,2.1-0.3,2.7,0.2c0.6,0.5,0.2,1.8,0.2,2.7c0,2.1,0,4.3,0,6.4c0,0.3-0.1,0.7,0.1,1.1c0.4,0,0.6-0.3,0.8-0.6
		c2.9-3,5.7-5.9,8.5-8.9c0.6-0.7,1.3-1,2.2-0.9c0.9,0.1,1.9,0,3.1,0c-1,1.1-1.8,2-2.6,2.9c-1.8,2-3.7,3.9-5.5,5.9
		c-0.5,0.5-0.5,0.9,0,1.4c2.7,3.3,5.3,6.6,8,9.8C287.1,279.6,287.2,279.8,287.6,280.3z"/>
	<path class="st0" d="M73.4,280.3c-1.3,0-2.4,0-3.5,0c-0.5,0-0.7-0.2-0.9-0.6c-0.5-1.2-1-2.3-1.5-3.5c-0.2-0.5-0.5-0.7-1-0.7
		c-3,0-6,0-9,0c-0.5,0-0.8,0.2-1,0.6c-0.5,1.2-1,2.3-1.5,3.4c-0.2,0.6-0.5,0.8-1.1,0.7c-0.7-0.1-1.5-0.1-2.2,0c-0.9,0.1-1-0.2-0.6-1
		c2-4.3,3.9-8.6,5.9-12.9c0.9-2.1,1.9-4.1,2.8-6.2c0.3-0.6,0.6-0.8,1.3-0.9c2.3-0.4,3.4,0.5,4.3,2.7c2.4,5.9,5.2,11.6,7.8,17.4
		C73.1,279.6,73.2,279.8,73.4,280.3z M65.9,272.3c-1.3-3-2.6-6-3.9-9c-1.3,3.1-2.6,6.1-3.9,9C60.7,272.3,63.2,272.3,65.9,272.3z"/>
	<path class="st0" d="M157.8,280.3c1.4-3.2,2.8-6.2,4.1-9.2c1.6-3.6,3.2-7.1,4.8-10.7c0.3-0.7,0.7-0.9,1.5-1c2.2-0.3,3.2,0.5,4,2.5
		c2.4,5.9,5.2,11.6,7.8,17.4c0.1,0.3,0.4,0.6,0.3,1.1c-1.1,0-2.3,0-3.4,0c-0.5,0-0.7-0.3-0.8-0.7c-0.5-1.1-1-2.3-1.5-3.4
		c-0.2-0.5-0.5-0.7-1.1-0.7c-3,0-6,0-8.9,0c-0.6,0-0.9,0.2-1.1,0.7c-0.4,1.1-1,2.2-1.4,3.3c-0.2,0.6-0.6,0.8-1.2,0.8
		C160,280.2,159,280.3,157.8,280.3z M165.2,272.3c2.4,0,4.7,0,7,0c0.9,0,0.8-0.3,0.5-0.9c-1.1-2.4-2.1-4.8-3.2-7.3
		c-0.1-0.3-0.1-0.6-0.5-0.8C167.8,266.4,166.5,269.3,165.2,272.3z"/>
	<path class="st0" d="M321.7,269.8c0-3.2,0-6.3,0-9.5c0-0.7,0.1-1,0.9-1c4.5,0,9,0,13.5,0c0.7,0,0.9,0.2,0.9,0.9
		c0,2.2,0,2.2-2.3,2.2c-2.7,0-5.5,0-8.2,0c-0.8,0-1.1,0.2-1,1.1c0.1,1.2,0.1,2.4,0,3.6c0,0.7,0.2,1,0.9,0.9c2.7,0,5.5,0,8.2,0
		c0.8,0,1.1,0.2,1.1,1c0,2.1,0,2.1-2.1,2.1c-2.4,0-4.8,0-7.2,0c-0.7,0-0.9,0.2-0.9,0.9c0,1.4,0.1,2.7,0,4.1c0,0.8,0.3,1,1,1
		c3.3,0,6.6,0,9.8,0c0.8,0,1.1,0.2,1,1c0,2.1,0,2.1-2.1,2.1c-4.2,0-8.4,0-12.6,0c-0.8,0-1.1-0.2-1.1-1
		C321.7,276.1,321.7,272.9,321.7,269.8z"/>
	<path class="st0" d="M118.6,280.5c-9.4,0-14.6-7.1-11.9-14.5c1.8-4.8,7.1-7.7,12.4-6.8c2.3,0.4,4.3,1.2,6,2.8c0.4,0.4,0.5,0.7,0,1
		c-0.1,0.1-0.2,0.2-0.3,0.3c-0.5,0.5-1,1.2-1.6,1.3c-0.7,0.2-1.1-0.7-1.6-1.1c-2.7-1.8-6.6-1.6-9.2,0.5c-2.4,2-3.2,6-1.7,9
		c1.4,2.9,4.7,4.5,7.9,3.9c1.5-0.3,2.8-0.8,3.9-1.9c0.4-0.4,0.7-0.4,1.1,0c0.4,0.5,0.9,1,1.4,1.4c0.6,0.5,0.4,0.8-0.1,1.2
		C122.8,279.7,120.2,280.5,118.6,280.5z"/>
	<path class="st0" d="M433.3,271.4c0-2.7,0-5.4,0-8c0-0.8-0.2-0.9-0.9-0.9c-1.7,0-3.5,0-5.2,0c-0.7,0-0.9-0.2-0.9-0.9
		c0-2.3-0.1-2.3,2.2-2.3c4.9,0,9.7,0,14.6,0c0.8,0,1.2,0.1,1.1,1c-0.1,2.1,0,2.1-2.2,2.1c-1.2,0-2.4,0.1-3.6,0
		c-0.9-0.1-1.2,0.2-1.2,1.1c0,5.1,0,10.1,0,15.2c0,1.7,0.2,1.5-1.4,1.5c-2.5,0-2.5,0-2.5-2.5C433.3,275.7,433.3,273.5,433.3,271.4z"
		/>
	<path class="st0" d="M266.3,190.3c0-3,0-6,0-8.9c0-0.4-0.1-0.9,0.6-0.9c3.7,0,7.3,0,10.9,1.1c4,1.3,5.8,4.7,5.8,8.1
		c0,2.1-0.2,4.2-1.4,6c-1.7,2.5-4.4,3.4-7.2,4c-2.6,0.5-5.2,0.5-7.8,0.5c-0.7,0-0.9-0.2-0.9-0.9
		C266.3,196.3,266.2,193.3,266.3,190.3z"/>
</g>
</svg>
