<?xml version="1.0" encoding="utf-8"?>
<!-- Generator: Adobe Illustrator 25.2.3, SVG Export Plug-In . SVG Version: 6.00 Build 0)  -->
<svg version="1.1" id="Layer_1" xmlns="http://www.w3.org/2000/svg" xmlns:xlink="http://www.w3.org/1999/xlink" x="0px" y="0px"
	 viewBox="0 0 613 324" style="enable-background:new 0 0 613 324;" xml:space="preserve">
<style type="text/css">
	.st0{fill:#FFFFFF;}
</style>
<g>
	<g>
		<g>
			<line class="st0" x1="151.9" y1="220.1" x2="468.5" y2="220.1"/>
			<rect x="151.9" y="218.4" class="st0" width="316.6" height="3.4"/>
		</g>
		<g>
			<rect x="151.9" y="226.6" class="st0" width="316.6" height="5.1"/>
		</g>
		<g>
			<g>
				<path class="st0" d="M432.7,282.2v3.4h-16v-3.4c0-1,0.5-1.5,1.4-1.8l0.5-0.1l0.8-0.2l-8.8-11.5c-0.3-0.4-0.7-0.8-1.3-1
					c-0.5-0.2-1.1-0.3-2-0.3h-2.5v12.6l1.7,0.3c0.2,0,0.4,0.1,0.5,0.1c0.1,0,0.3,0.1,0.4,0.1l0.3,0.1c1,0.2,1.4,0.8,1.4,1.8v3.4
					h-16.4v-3.4c0-1,0.5-1.5,1.4-1.8l0.3-0.1l0.9-0.2l1.7-0.3v-30.1l-1.7-0.3l-0.9-0.1l-0.3-0.1c-1-0.2-1.4-0.8-1.4-1.8v-3.3h16.4
					v3.3c0,1-0.5,1.6-1.4,1.8l-0.3,0.1c0,0-0.2,0-0.9,0.1l-1.7,0.3v11.7h1.8c0.8,0,1.4-0.1,1.8-0.3c0.6-0.3,1-0.6,1.3-1l8.5-10.8
					l-0.4-0.1l-0.3-0.1c-1-0.2-1.4-0.8-1.4-1.8v-3.4h15.2v3.4c0,1-0.5,1.5-1.4,1.8l-0.5,0.1c-0.2,0-0.3,0-0.5,0.1
					c-0.2,0-0.4,0.1-0.5,0.1l-1.7,0.3l-9.3,11.6c-0.6,0.7-1,1.1-1.3,1.3c-0.5,0.4-0.9,0.7-1.3,0.9c0.6,0.2,1.1,0.6,1.7,1
					c0.5,0.4,1,0.9,1.5,1.6l10.2,13.7l1.7,0.3c0.2,0,0.4,0.1,0.5,0.1c0.2,0,0.3,0.1,0.5,0.1l0.5,0.1
					C432.3,280.6,432.7,281.2,432.7,282.2z"/>
				<path class="st0" d="M470.2,275.8c-1.8,3.2-4.3,5.7-7.5,7.5c-3.2,1.8-6.8,2.7-10.9,2.7c-4.1,0-7.7-0.9-10.9-2.7
					c-3.2-1.8-5.7-4.3-7.5-7.5c-1.8-3.2-2.7-6.9-2.7-11c0-4.1,0.9-7.8,2.7-11c1.8-3.2,4.3-5.7,7.5-7.5c3.2-1.8,6.8-2.7,10.9-2.7
					c4.1,0,7.7,0.9,10.9,2.8c3.2,1.8,5.7,4.4,7.4,7.6c1.8,3.2,2.6,6.8,2.6,10.8C472.9,268.9,472,272.6,470.2,275.8z M461.6,254.3
					c-2.3-2.7-5.5-4-9.7-4c-4.2,0-7.5,1.3-9.8,4c-2.3,2.7-3.4,6.2-3.4,10.5c0,4.4,1.1,8,3.4,10.6c2.3,2.7,5.5,4,9.7,4
					c4.2,0,7.4-1.3,9.7-4c2.3-2.7,3.4-6.2,3.4-10.6C465,260.4,463.8,256.9,461.6,254.3z"/>
				<path class="st0" d="M512.5,282.2v3.4h-7.7c-0.7,0-1.3-0.1-1.7-0.4c-0.4-0.3-0.8-0.6-1.1-1.1l-8.7-13.3c-0.3-0.5-0.7-0.8-1.1-1
					c-0.4-0.2-1-0.3-1.7-0.3h-2.9v10.5l1.7,0.3c0.2,0,0.4,0.1,0.5,0.1c0.1,0,0.3,0.1,0.4,0.1l0.3,0.1c1,0.2,1.4,0.8,1.4,1.8v3.4
					h-16.4v-3.4c0-1,0.5-1.5,1.4-1.8l0.3-0.1l0.9-0.2l1.7-0.3v-30.1l-1.7-0.3c-0.2,0-0.4-0.1-0.5-0.1c-0.1,0-0.3-0.1-0.4-0.1
					l-0.3-0.1c-1-0.2-1.4-0.8-1.4-1.8v-3.4H492c2.8,0,5.3,0.3,7.3,0.9c1.9,0.6,3.6,1.4,4.9,2.5c1.3,1.1,2.3,2.4,2.9,3.8
					c0.6,1.5,0.9,3.1,0.9,4.8c0,1.3-0.2,2.6-0.6,4c-0.3,1.1-0.9,2.2-1.8,3.4c-0.7,1-1.6,1.8-2.9,2.6c-1.2,0.8-2.5,1.4-3.9,1.8
					c1,0.6,1.8,1.4,2.5,2.4l6.5,9.6l1.8,0.3c0.2,0,0.4,0.1,0.5,0.1c0.2,0,0.3,0.1,0.4,0.1l0.5,0.1
					C512,280.6,512.5,281.2,512.5,282.2z M498.3,261.8c0.6-0.6,1.2-1.4,1.5-2.3c0.3-0.9,0.5-1.8,0.5-2.9c0-2.1-0.7-3.7-2.1-4.9
					c-1.3-1.1-3.5-1.7-6.4-1.7h-4.5v13.8h4.4c1.3,0,2.6-0.2,3.8-0.6C496.7,262.9,497.6,262.4,498.3,261.8z"/>
				<path class="st0" d="M554.8,247.5c0,1-0.5,1.5-1.4,1.8l-0.3,0.1c-0.1,0-0.2,0-0.4,0.1c-0.1,0-0.3,0.1-0.5,0.1l-1.7,0.3V269
					c0,2.5-0.4,4.8-1.2,6.8c-0.8,2.2-2,4-3.4,5.4c-1.5,1.5-3.3,2.7-5.4,3.6c-2.1,0.8-4.5,1.3-7.2,1.3c-2.7,0-5.1-0.4-7.2-1.3
					c-2.1-0.8-3.9-2-5.4-3.6c-1.5-1.5-2.6-3.3-3.4-5.4c-0.8-1.9-1.1-4.2-1.1-6.8v-19.1l-1.7-0.3c-0.2,0-0.4-0.1-0.5-0.1
					c-0.1,0-0.3-0.1-0.4-0.1l-0.3-0.1c-1-0.2-1.4-0.8-1.4-1.8v-3.4h16.6v3.4c0,1-0.5,1.5-1.4,1.8l-0.4,0.1c-0.1,0-0.2,0-0.4,0.1
					c-0.2,0-0.3,0.1-0.6,0.1l-1.8,0.3v19.1c0,1.7,0.2,3.2,0.6,4.3c0.4,1.2,1,2.3,1.9,3.3c0.7,0.8,1.7,1.5,2.9,2.1
					c1.1,0.5,2.4,0.7,4,0.7c1.6,0,2.9-0.2,4-0.7c1.3-0.6,2.3-1.3,3-2.1c0.7-0.8,1.3-1.9,1.8-3.3c0.5-1.5,0.7-2.9,0.7-4.3v-19.1
					l-1.8-0.3c-0.2,0-0.4-0.1-0.6-0.1c-0.2,0-0.3-0.1-0.4-0.1l-0.4-0.1c-1-0.2-1.4-0.8-1.4-1.8v-3.4h16.6V247.5z"/>
			</g>
			<g>
				<path class="st0" d="M104.5,247.5c0,1-0.5,1.5-1.4,1.8l-0.3,0.1c-0.1,0-0.2,0-0.4,0.1c-0.1,0-0.3,0.1-0.5,0.1l-1.7,0.3v35.8h-4
					c-0.5,0-1-0.1-1.5-0.3c-0.4-0.2-0.8-0.5-1.2-1l-21.7-27.6c0.1,0.8,0.1,1.4,0.1,1.8l0.1,1.7v19.8l3.7,0.5c1,0.2,1.4,0.8,1.4,1.8
					v3.4H60.9v-3.4c0-1,0.5-1.5,1.4-1.8l0.3-0.1l0.9-0.2l1.7-0.3v-30.1l-1.7-0.3c-0.2,0-0.4-0.1-0.5-0.1c-0.1,0-0.3-0.1-0.4-0.1
					l-0.3-0.1c-1-0.2-1.4-0.8-1.4-1.8v-3.4h8.4l0.9,0.1c0.3,0,0.5,0.1,0.6,0.2c0.2,0,0.3,0.2,0.5,0.3l0.6,0.7l21.8,27.7l-0.2-2
					c0-0.4-0.1-1-0.1-1.8v-19.5l-3.7-0.5c-1-0.2-1.4-0.8-1.4-1.8v-3.4h16.3V247.5z"/>
				<path class="st0" d="M125.2,249.4c-0.1,0-0.2,0-0.4,0.1c-0.1,0-0.3,0.1-0.5,0.1l-1.7,0.3v30.1l1.7,0.3c0.2,0,0.4,0.1,0.5,0.1
					c0.1,0,0.3,0.1,0.4,0.1l0.3,0.1c1,0.2,1.4,0.8,1.4,1.8v3.4h-16.4v-3.4c0-1,0.5-1.5,1.4-1.8l0.3-0.1l0.9-0.2l1.7-0.3v-30.1
					l-1.7-0.3c-0.2,0-0.4-0.1-0.5-0.1c-0.1,0-0.3-0.1-0.4-0.1l-0.3-0.1c-1-0.2-1.4-0.8-1.4-1.8v-3.4h16.4v3.4c0,1-0.5,1.5-1.4,1.8
					L125.2,249.4z"/>
				<path class="st0" d="M159.7,272.6c0,1.8-0.3,3.5-1,5.2c-0.7,1.7-1.6,3.1-2.8,4.3c-1.2,1.2-2.7,2.2-4.5,2.9
					c-1.3,0.5-2.7,0.8-4,0.9l-0.3,1.3c1.6,0.4,2.8,0.9,3.6,1.7c0.7,0.7,1,1.5,1,2.6c0,1.4-0.7,2.4-2.1,3.1c-1.4,0.7-3,1-4.9,1
					c-0.9,0-1.6,0-2.2-0.1c-0.6-0.1-1.3-0.2-2-0.5l0.6-2.2c0.1-0.4,0.4-0.6,0.8-0.6c0.2,0,0.6,0.1,1,0.2c0.5,0.1,0.9,0.2,1.3,0.2
					c0.6,0,1-0.1,1.4-0.3c0.3-0.2,0.5-0.5,0.5-0.9c0-0.6-0.3-1-1-1.2c-0.8-0.3-1.8-0.5-3.2-0.6l1.1-3.4c-3.3-0.2-6.8-0.9-10.4-2.1
					v-10.7h3.3c0.7,0,1.2,0.3,1.3,1c0.1,0.5,0.3,2.1,0.5,4.8c1.6,0.5,4.2,0.7,7.9,0.7c2.2,0,3.9-0.5,5.1-1.5c1.2-1,1.8-2.5,1.8-4.5
					c0-1.1-0.3-2-0.8-2.7c-0.5-0.7-1.2-1.3-2.2-1.7c-1-0.5-2-0.9-3-1.2l-1.3-0.3l-2.2-0.7c-1.1-0.4-2.3-0.8-3.5-1.4
					c-1.1-0.5-2.1-1.2-3.1-2.1c-0.9-0.8-1.6-1.9-2.1-3.2c-0.6-1.4-0.9-3-0.9-4.8c0-1.6,0.3-3,0.9-4.4c0.6-1.5,1.5-2.7,2.6-3.8
					c1.1-1,2.5-1.9,4.2-2.6c1.7-0.7,3.6-1,5.8-1c4,0,8,0.8,11.9,2.4v10.6h-3.3c-0.7,0-1.1-0.4-1.3-1.1c-0.1-0.5-0.3-2.1-0.5-4.6
					c-1.4-0.6-3.6-0.9-6.7-0.9c-1,0-2,0.1-2.8,0.3c-0.9,0.3-1.5,0.7-2,1.1c-0.6,0.5-1,1.1-1.3,1.7c-0.3,0.6-0.4,1.3-0.4,2.1
					c0,0.9,0.3,1.7,0.9,2.4c0.6,0.7,1.3,1.2,2.1,1.7c1.1,0.5,2.1,1,3.1,1.3c0.4,0.1,1.5,0.5,3.5,1.1c0.8,0.3,2,0.7,3.5,1.4
					c1.1,0.5,2.2,1.2,3.1,2.1c1,0.9,1.7,1.9,2.2,3C159.4,269.3,159.7,270.8,159.7,272.6z"/>
				<path class="st0" d="M205.4,282.7v2.9h-14v-2.9c0-0.6,0.4-1.1,1.1-1.5l1.1-0.5l-2.3-6.3h-16.5l-2.3,6.3l1.1,0.5
					c0.8,0.3,1.1,0.8,1.1,1.5v2.9h-14v-2.9c0-0.6,0.4-1.1,1.1-1.5l3.2-1.3l14-35.7h7.9l14.1,35.7l3.2,1.3
					C205,281.5,205.4,282,205.4,282.7z M189.5,269l-4.8-12.9c-0.5-1.3-1-2.9-1.5-4.9l-0.5,1.8c-0.3,1-0.7,2.1-1,3.2l-4.7,12.8H189.5
					z"/>
				<path class="st0" d="M251.9,247.5c0,1-0.5,1.5-1.4,1.8l-0.3,0.1c-0.1,0-0.2,0-0.4,0.1c-0.1,0-0.3,0.1-0.5,0.1l-1.7,0.3v35.8h-4
					c-0.5,0-1-0.1-1.5-0.3c-0.4-0.2-0.8-0.5-1.2-1l-21.7-27.6c0.1,0.8,0.1,1.4,0.1,1.8l0.1,1.7v19.8l3.7,0.5c1,0.2,1.4,0.8,1.4,1.8
					v3.4h-16.3v-3.4c0-1,0.5-1.5,1.4-1.8l0.3-0.1l0.9-0.2l1.7-0.3v-30.1l-1.7-0.3c-0.2,0-0.4-0.1-0.5-0.1c-0.1,0-0.3-0.1-0.4-0.1
					l-0.3-0.1c-1-0.2-1.4-0.8-1.4-1.8v-3.4h8.4l0.9,0.1c0.3,0,0.5,0.1,0.6,0.2c0.2,0,0.3,0.2,0.5,0.3l0.6,0.7l21.8,27.7l-0.2-2
					c0-0.4-0.1-1-0.1-1.8v-19.5l-3.7-0.5c-1-0.2-1.4-0.8-1.4-1.8v-3.4h16.3V247.5z"/>
				<path class="st0" d="M289.3,253.9H286c-0.7,0-1.2-0.4-1.4-1.1c-0.1-0.6-0.2-1.4-0.3-2.4h-8.4v29.4l1.7,0.3
					c0.2,0,0.4,0.1,0.5,0.1c0.1,0,0.3,0.1,0.4,0.1l0.3,0.1c1,0.2,1.5,0.8,1.5,1.8v3.4h-16.4v-3.4c0-1,0.5-1.5,1.4-1.8l0.3-0.1
					c0.1,0,0.2,0,0.4-0.1c0.1,0,0.3-0.1,0.5-0.1l1.7-0.3v-29.5h-8.4c-0.1,1-0.2,1.8-0.3,2.4c-0.2,0.7-0.6,1.1-1.3,1.1h-3.3v-9.8
					h34.5V253.9z"/>
				<path class="st0" d="M328.2,282.7v2.9h-14v-2.9c0-0.6,0.4-1.1,1.1-1.5l1.1-0.5l-2.3-6.3h-16.5l-2.3,6.3l1.1,0.5
					c0.8,0.3,1.1,0.8,1.1,1.5v2.9h-14v-2.9c0-0.6,0.4-1.1,1.1-1.5l3.2-1.3l14-35.7h7.9l14.1,35.7l3.2,1.3
					C327.8,281.5,328.2,282,328.2,282.7z M312.3,269l-4.8-12.9c-0.5-1.3-1-2.9-1.5-4.9l-0.5,1.8c-0.3,1-0.7,2.1-1,3.2l-4.7,12.8
					H312.3z"/>
				<path class="st0" d="M357.4,272.6c0,1.8-0.3,3.5-1,5.2c-0.7,1.7-1.6,3.1-2.8,4.3c-1.2,1.2-2.7,2.2-4.5,2.9
					c-1.3,0.5-2.7,0.8-4,0.9l-0.3,1.3c1.6,0.4,2.8,0.9,3.6,1.7c0.7,0.7,1,1.5,1,2.6c0,1.4-0.7,2.4-2.1,3.1c-1.4,0.7-3,1-4.9,1
					c-0.9,0-1.6,0-2.2-0.1c-0.6-0.1-1.3-0.2-2-0.5l0.6-2.2c0.1-0.4,0.4-0.6,0.8-0.6c0.2,0,0.6,0.1,1,0.2c0.5,0.1,0.9,0.2,1.3,0.2
					c0.6,0,1-0.1,1.4-0.3c0.3-0.2,0.5-0.5,0.5-0.9c0-0.6-0.3-1-1-1.2c-0.8-0.3-1.8-0.5-3.2-0.6l1.1-3.4c-3.3-0.2-6.8-0.9-10.4-2.1
					v-10.7h3.3c0.7,0,1.2,0.3,1.3,1c0.1,0.5,0.3,2.1,0.5,4.8c1.6,0.5,4.2,0.7,7.9,0.7c2.2,0,3.9-0.5,5.1-1.5c1.2-1,1.8-2.5,1.8-4.5
					c0-1.1-0.3-2-0.8-2.7c-0.5-0.7-1.2-1.3-2.2-1.7c-1-0.5-2-0.9-3-1.2l-1.3-0.3l-2.2-0.7c-1.1-0.4-2.3-0.8-3.5-1.4
					c-1.1-0.5-2.1-1.2-3.1-2.1c-0.9-0.8-1.6-1.9-2.1-3.2c-0.6-1.4-0.9-3-0.9-4.8c0-1.6,0.3-3,0.9-4.4c0.6-1.5,1.5-2.7,2.6-3.8
					c1.1-1,2.5-1.9,4.2-2.6c1.7-0.7,3.6-1,5.8-1c4,0,8,0.8,11.9,2.4v10.6h-3.3c-0.7,0-1.1-0.4-1.3-1.1c-0.1-0.5-0.3-2.1-0.5-4.6
					c-1.4-0.6-3.6-0.9-6.7-0.9c-1,0-2,0.1-2.8,0.3c-0.9,0.3-1.5,0.7-2,1.1c-0.6,0.5-1,1.1-1.3,1.7c-0.3,0.6-0.4,1.3-0.4,2.1
					c0,0.9,0.3,1.7,0.9,2.4c0.6,0.7,1.3,1.2,2.1,1.7c1.1,0.5,2.1,1,3.1,1.3c0.4,0.1,1.5,0.5,3.5,1.1c0.8,0.3,2,0.7,3.5,1.4
					c1.1,0.5,2.2,1.2,3.1,2.1c1,0.9,1.7,1.9,2.2,3C357.2,269.3,357.4,270.8,357.4,272.6z"/>
				<path class="st0" d="M375.7,249.4c-0.1,0-0.2,0-0.4,0.1c-0.1,0-0.3,0.1-0.5,0.1l-1.7,0.3v30.1l1.7,0.3c0.2,0,0.4,0.1,0.5,0.1
					c0.1,0,0.3,0.1,0.4,0.1l0.3,0.1c1,0.2,1.4,0.8,1.4,1.8v3.4h-16.4v-3.4c0-1,0.5-1.5,1.4-1.8l0.3-0.1l0.9-0.2l1.7-0.3v-30.1
					l-1.7-0.3c-0.2,0-0.4-0.1-0.5-0.1c-0.1,0-0.3-0.1-0.4-0.1l-0.3-0.1c-1-0.2-1.4-0.8-1.4-1.8v-3.4h16.4v3.4c0,1-0.5,1.5-1.4,1.8
					L375.7,249.4z"/>
				<rect x="113.9" y="237.9" class="st0" width="9.6" height="4.5"/>
			</g>
		</g>
	</g>
	<g>
		<path class="st0" d="M389.6,80.9c1.4,0.1,1.5,3.3,1.4,3.9c-0.2,0.6,0.8,1.1,0.8,2.2c0.1,1.1,0,1.7,0,1.7s2.6-2.4,3.5-0.8
			c0.9,1.7-0.3,3.1-0.3,3.1s0.4,1.4,0.1,2.4c-0.3,1-0.6,0.9-0.8,1.5c-0.3,0.6-0.3,1.3,0.5,1.3s2-0.7,2.7,0c0.7,0.7,1.4,0.6,1.5,1.6
			s0.7,1.5,1.6,1.5c0.9,0.1,1.2,0.6,1.1,1.2c-0.1,0.6-1.5,0.8-2.8,0.7c-1.2-0.2-2.9,0-3.2,0.5c-0.3,0.5-0.8,1.2,0.5,1.4
			c1.3,0.2,2.4,0.3,2.7,0.5c0.3,0.3,1.5,0.9,2.6,1.3s1.2,1.3,1.2,1.8c0,0.5,0.5,0.5,0.3,1.2c-0.2,0.7-0.1,0.8,0.8,1.5
			c0.9,0.7,3,1,3.4,1.6c0.4,0.6,1.7,0.9,1.6,1.7c-0.1,0.8-1.2,0.7-2,0.8c-0.8,0.2-0.2,0.5,0.2,0.6c0.3,0.1,1.8,0.6,2.9,1.2
			c1.1,0.6,3.4,0.6,3.4,0.6s-1.9,1.2-5.8,0.7c-4-0.6-8.9-2.6-8.9-2.6s4.8,3.4,7,4.6c2.2,1.1,3.4,1.7,3.5,2.2c1.7-0.1,3-0.1,3.2,0.3
			c0.2,0.4-1,2-4.4,1.8c2.1,2.7,6.2,4.8,6.2,4.8s-4.5,1.8-10.5-3.9c1.2,1.8,0.8,2.5,1.9,3.6c1.1,1.1,2,2.5,3.1,2.7
			c1.1,0.2,2.7,1.2,2.9,2.1s0.4,2.7,1.2,3.2c0.8,0.4,1.3,0.2,2,1.1c0.7,0.9,2.2,1.2,2.6,1.8c0.4,0.6-0.6,1.6-2.6,1.3
			c-2-0.4-4.3-1.8-5-1.6c-0.7,0.3,1,1,1.5,1.7c0.6,0.7-0.2,0.9,0.8,1.3c1,0.5,1.5,1.4,3.3,1.9c1.8,0.5,2,1,2.9,1.5
			c0.9,0.5,2.2,0.4,2.7,0.9c0.5,0.5,0.4,1.5-0.8,1.7c-1.2,0.2-2.8-0.2-4.6,0c-1.8,0.2-2.6-0.2-3.9-0.5c-1.3-0.3-2.7-1-4.2-1.6
			c-1.4-0.6-2-0.6-3-1.6c-1-1-2.9-2.7-2.9-2.7s1.6,2.4,2.6,3.7c1,1.3,3.3,3.2,5.1,4.1c1.7,0.9,2.7,1.8,4.3,2.2
			c1.6,0.4,2.7,1.3,3.2,2.8c0.6,1.5,5.8,4,7.6,3.9c1.8-0.1,2.8,0.3,2.8,0.7c0,0.4-0.4,1.6-2.6,1.7c-2.2,0.1-2.8,0.5-2.8,0.5
			s1.8,1.1,1.7,1.8c-0.1,0.7-2.7,0.4-3.6,0.3c-1,0-2.9-0.8-3.9-0.8c-1,0-2.2-0.1-2.2-0.1s0.4,0.8-0.2,1.1c-0.6,0.4,1.7,3.6,2.5,3.9
			c0.8,0.3,1.7,0.6,2.2,1.5c0.5,0.9,5.7,3,6.2,3.2c0.5,0.3,2.3,0.7,2.3,1.3c-0.1,0.6-0.4,1.5-3.6,1.2c0.1,0.7-0.6,1.1-1.8,0.9
			s-1.5,0.4-1.5,1c0,0.6-0.9,0.8-2,0.6c-1.1-0.2-3.2-0.4-3.2-0.4s1.3,1.2,3.3,1.7c2.1,0.5,4.5,3,6.2,3.2c-3.3,0.7-11.4-1.7-11.4-1.7
			s7.3,3.7,9.7,4c2.4,0.3,8.4,0.6,10.9,0.3c2.5-0.4,4.3,1.1,5.4,1.1c1.2,0,1.1,0.8-1,1.4c-2.1,0.5-4.7,1.6-6.1,2.2
			c-1.3,0.6-9.3-0.3-9.3-0.3s4.4,2.4,5.7,3.3c1.3,0.9,1.5,1.8,0.3,1.8c-1.3-0.1-1.1,0.5-2.3,0.5c-1.2,0-3-1-4.3-0.7
			c-1.3,0.3-2.8-0.8-3.7-0.8s-0.3,0.6-2.6,0.6c-2.3,0-3.4-0.5-4.4-0.9c-0.9-0.4-3-0.1-4.5-0.6c-1.5-0.5-4.6-3.1-4.6-3.1
			s4,4.4,5.3,5.2c1.3,0.8,2.2,0.4,2.8,0.6c0.6,0.1,2.2,1.7,3.3,2.1c1.1,0.5,4,0.9,4.6,1.4c0.6,0.6,2.1,1.1,2.8,1.4
			c0.7,0.3,0.7,1,2.3,1.1c1.6,0.1,2.3-0.3,3.2,0.9c0.9,1.3,3.3,0.7,3.8,1.2c0.5,0.4,2.9-0.3,3.3,0.1c0.4,0.4-0.8,1.9-2.4,2.2
			c-1.6,0.3-1.8,1.5-4.5,0.7c-2.7-0.8-1.7,0.8-3.9,0.3c-2.2-0.5-4-0.5-4-0.5s2,2.6,3.4,2.7c1.4,0.1,3.2,0.1,3.3,0.9
			c0.2,0.8-1.8,1.8-3.3,1.3c-1.6-0.5-2.2-0.9-3.1-0.4c-0.9,0.5-3,1.2-5.3,0.6c-2.3-0.6-2.2-0.2-3.8-1.3c-1.6-1-6.8-3.3-12.2-10.3
			c2.9,5.9,5.4,9,9.5,11.1c-0.7,0.1-2.5-0.3-2.5-0.3s1.4,1.6,0.5,2.4c-1,0.7-2.8-1-4.1-2c-1.3-1-3.1-3.1-3.1-3.1s0.3,2.2,0.7,3.2
			c0.4,1-0.5,1.6-1.8,1.3c-1.3-0.4-4.7-3.4-4.7-3.4l0.4,13.6h11.9l3,1.2H368l3.4-1.6l12.5,0.3c0,0-0.3-3,0.1-5.5
			c0.4-2.5,0.7-8,0.7-8s-3.7,3.5-6,3.1c-2.3-0.4-0.1-2,0.2-4.3c-2.3,2.8-3.8,3-4.5,3.9c-0.7,0.8-2.4,1.4-3,1
			c-0.6-0.5,0.9-2.4,0.9-2.4l-3,0.7c0,0,3.7-2.3,5.3-3.9c1.5-1.6,5-7.7,5-7.7s-3.1,4.3-6.8,6.6c-3.7,2.3-5.6,4-8.5,4.7
			c-2.9,0.7-4.8,0.1-6-0.4c-1.3-0.4-1.4-0.4-2.9,0.1c-1.4,0.4-3.7,0-3.6-1.1c0.1-1.1,1.6-1,3-1c1.4,0,3.2-2.6,3.2-2.6s-2,0-3.3,0.4
			c-1.3,0.4-1-0.3-2.8-0.3c-1.7,0-2.4,0.5-3.6-0.1c-1.2-0.6-5-1.6-4.7-2.7c0.3-1,1.2,0,2.8-0.1c1.6-0.1,2.9-1.2,4-1
			c0.5-1.1,2-2.1,3.1-1.6c1.2,0.5,2.1,0,4.1-1.5c2-1.4,3.2-0.9,4.3-1.5c1.1-0.6,2.8-1.5,4.8-2.3c2-0.8,1.9,0.1,3-0.4
			c1.1-0.5,4.2-3.4,5.4-5.1c-4,3.1-8.2,2.6-9.7,3.3c-1.4,0.7-2.6,1.3-4.8,0.6c-2.2-0.7-2.1-0.3-3.5,0c-1.5,0.3-2.9,0.5-4.6,0.7
			c-1.8,0.2-4-0.1-4.3-0.9c-0.3-0.8,6.5-4.3,6.5-4.3s-4.6,0.9-7.4,0.2c-2.8-0.7-9-2.7-9.1-3.4c-0.1-0.7,0.9-1,4.2-1.3
			c3.3-0.3,11.4,0.4,13,0c1.6-0.4,10.1-4.4,10.1-4.4s-8.8,2.6-13,2.1c3.2-1.3,6.7-3.5,7.8-3.6c1.1-0.1,2.2-1.1,2.2-1.1s-3,0.4-4,0.4
			c-1,0-0.1-1.3-1.2-1.7c-1.1-0.4-2.1,0.3-2.7-0.3c-0.7-0.5,0.3-0.7-0.2-0.9c-0.4-0.2-3.4,0.3-3.4-1c0-1.3,5.5-2.6,8-4.3
			c2.5-1.7,1.7-2,3.2-1.9c1.5,0.1,3.2-3.9,3.2-3.9s-4-0.2-6.8,0.1c-2.7,0.3-6.9-0.2-6.7-1.4c0.2-1.2,4.2-0.4,4.4-1.6
			c0.2-1.2-1.5-0.5-2.1-1c-0.5-0.5,0.8-2.1,2.3-2.1c1.5-0.1,2.1-0.1,3-0.5c0.9-0.4,0.8-1,1.6-1.1c0.8-0.1,1.2,0,1.2-0.3
			c0.1-0.3-0.5-1.9,0-2.5c0.5-0.7,1.3-0.2,1.6-0.4c0.3-0.2,1.3-2.1,5.2-3.5c3.9-1.3,8.5-8.3,9.1-9.7c-3.2,2.8-3.1,2.5-3.8,3.5
			c-0.7,1-2.4,1.7-3.4,2.5c-1,0.7-2.5,2.3-3.6,2.3c-1.1,0-1.8-0.4-2.8-0.1c-1,0.3-1.7-0.1-2.8,0c-1.1,0.2-1.4,0.4-2.3,0.1
			c-0.9-0.4-1.7-0.1-1.8-0.7c-0.1-0.6,0.8-1.1,1.7-1.5c0.9-0.4,1-1,2-1.5c1-0.5,1.1-0.1,2.6-0.9c1.5-0.9,1.7-0.7,2.1-0.9
			c0.3-0.2,1.4-1.8,2.2-2.4c0.8-0.5-0.2-1-0.9-0.5c-0.8,0.5-2,1-3,1s-3.4,0.1-3.6-0.7c-0.2-0.9,1.6-0.8,2.5-1.8
			c0.8-1,0.6-0.9,1.6-1.1c1-0.2,1.6-1.5,1.7-2c0.1-0.5,0.2-2.2,1.1-2.7c0.9-0.6,2.8-0.7,4.1-1.3c1.3-0.6,3.8-1.8,4.4-2.5
			c-1.1-0.2-0.2-2.1,0.2-2.4c-2.8,1.9-6.1,3.2-7.6,3.3c-1.5,0.1-3.3-0.3-3.3-0.3s4.8-2.4,6.4-4.3c-1.4-0.4-2.8,0.1-3.5-0.6
			c-0.8-0.7-1.3-0.2-1.5-1c-0.2-0.9,1.5-0.9,2.6-0.7c1.1-1.1,4.3-2.9,6.5-3.8c2.2-0.9,4.2-3,4.2-3s-1.3-0.3-2.1,0.3
			c-0.8,0.6-4.7,1.7-5.4,0.5c-0.7-1.2,1.3-1.1,2.7-4.4c1.4-3.3,3.9-7,8-6.5c4.1,0.5,9.5,3.9,9.5,3.9s-6.4-5.5-9.6-6.3
			c-3.1-0.8-4.4,0.7-5.5-0.6c-1.2-1.3,1-1.3,2.2-2.3c1.2-1,0.9-1,0-1.8c-0.9-0.8-1.1-2.7,0.5-2.6c1.6,0.1,4.9,2.3,5.8,4.4
			c-1-3.3-1.8-7.3-1-7.4c0.8-0.1,1.7,0.2,1.7,0.2s-0.2-0.9,0.3-1.7c-1.5-1.7-1.6-5.6-0.6-6.1c1-0.5,2.4,1.9,2.4,1.9
			S388.6,80.9,389.6,80.9z"/>
		<path class="st0" d="M232.3,80.9c-1.4,0.1-1.5,3.3-1.4,3.9c0.2,0.6-0.8,1.1-0.8,2.2c-0.1,1.1,0,1.7,0,1.7s-2.6-2.4-3.5-0.8
			c-0.9,1.7,0.3,3.1,0.3,3.1s-0.4,1.4-0.1,2.4c0.3,1,0.6,0.9,0.8,1.5c0.3,0.6,0.3,1.3-0.5,1.3c-0.8,0-2-0.7-2.7,0
			c-0.7,0.7-1.4,0.6-1.5,1.6c-0.1,1.1-0.7,1.5-1.6,1.5c-0.9,0.1-1.2,0.6-1.1,1.2c0.1,0.6,1.5,0.8,2.8,0.7c1.2-0.2,2.9,0,3.2,0.5
			c0.3,0.5,0.8,1.2-0.5,1.4c-1.3,0.2-2.4,0.3-2.7,0.5c-0.3,0.3-1.5,0.9-2.6,1.3c-1.1,0.4-1.2,1.3-1.2,1.8c0,0.5-0.5,0.5-0.3,1.2
			c0.2,0.7,0.1,0.8-0.8,1.5c-0.9,0.7-3,1-3.4,1.6c-0.4,0.6-1.7,0.9-1.6,1.7c0.1,0.8,1.2,0.7,2,0.8c0.8,0.2,0.2,0.5-0.2,0.6
			c-0.3,0.1-1.8,0.6-2.9,1.2c-1.1,0.6-3.4,0.6-3.4,0.6s1.9,1.2,5.8,0.7c4-0.6,8.9-2.6,8.9-2.6s-4.8,3.4-7,4.6
			c-2.2,1.1-3.4,1.7-3.5,2.2c-1.7-0.1-3-0.1-3.2,0.3c-0.2,0.4,1,2,4.4,1.8c-2.1,2.7-6.2,4.8-6.2,4.8s4.5,1.8,10.5-3.9
			c-1.2,1.8-0.8,2.5-1.9,3.6c-1.1,1.1-2,2.5-3.1,2.7c-1.1,0.2-2.7,1.2-2.9,2.1c-0.3,0.9-0.4,2.7-1.2,3.2c-0.8,0.4-1.3,0.2-2,1.1
			c-0.7,0.9-2.2,1.2-2.6,1.8c-0.4,0.6,0.6,1.6,2.6,1.3c2-0.4,4.3-1.8,5-1.6c0.7,0.3-1,1-1.5,1.7c-0.6,0.7,0.2,0.9-0.8,1.3
			c-1,0.5-1.5,1.4-3.3,1.9c-1.8,0.5-2,1-2.9,1.5c-0.9,0.5-2.2,0.4-2.7,0.9c-0.5,0.5-0.4,1.5,0.8,1.7c1.2,0.2,2.8-0.2,4.6,0
			c1.8,0.2,2.6-0.2,3.9-0.5c1.3-0.3,2.7-1,4.2-1.6c1.4-0.6,2-0.6,3-1.6c1-1,2.9-2.7,2.9-2.7s-1.6,2.4-2.6,3.7
			c-1,1.3-3.3,3.2-5.1,4.1s-2.7,1.8-4.3,2.2c-1.6,0.4-2.7,1.3-3.2,2.8c-0.6,1.5-5.8,4-7.6,3.9c-1.8-0.1-2.8,0.3-2.8,0.7
			c0,0.4,0.4,1.6,2.6,1.7c2.2,0.1,2.8,0.5,2.8,0.5s-1.8,1.1-1.7,1.8c0.1,0.7,2.7,0.4,3.6,0.3c1,0,2.9-0.8,3.9-0.8s2.2-0.1,2.2-0.1
			s-0.4,0.8,0.2,1.1c0.6,0.4-1.7,3.6-2.5,3.9c-0.8,0.3-1.7,0.6-2.2,1.5c-0.5,0.9-5.7,3-6.2,3.2c-0.5,0.3-2.3,0.7-2.3,1.3
			c0.1,0.6,0.4,1.5,3.6,1.2c-0.1,0.7,0.6,1.1,1.8,0.9c1.2-0.2,1.5,0.4,1.5,1c0,0.6,0.9,0.8,2,0.6c1.1-0.2,3.2-0.4,3.2-0.4
			s-1.3,1.2-3.3,1.7c-2.1,0.5-4.5,3-6.2,3.2c3.3,0.7,11.4-1.7,11.4-1.7s-7.3,3.7-9.7,4c-2.4,0.3-8.4,0.6-10.9,0.3s-4.3,1.1-5.4,1.1
			s-1.1,0.8,1,1.4s4.7,1.6,6.1,2.2c1.3,0.6,9.3-0.3,9.3-0.3s-4.4,2.4-5.7,3.3c-1.3,0.9-1.5,1.8-0.3,1.8c1.3-0.1,1.1,0.5,2.3,0.5
			c1.2,0,3-1,4.3-0.7c1.3,0.3,2.8-0.8,3.7-0.8s0.3,0.6,2.6,0.6c2.3,0,3.4-0.5,4.4-0.9c0.9-0.4,3-0.1,4.5-0.6
			c1.5-0.5,4.6-3.1,4.6-3.1s-4,4.4-5.3,5.2c-1.3,0.8-2.2,0.4-2.8,0.6c-0.6,0.1-2.2,1.7-3.3,2.1c-1.1,0.5-4,0.9-4.6,1.4
			c-0.6,0.6-2.1,1.1-2.8,1.4c-0.7,0.3-0.7,1-2.3,1.1c-1.6,0.1-2.3-0.3-3.2,0.9c-0.9,1.3-3.3,0.7-3.8,1.2c-0.5,0.4-2.9-0.3-3.3,0.1
			c-0.4,0.4,0.8,1.9,2.4,2.2c1.6,0.3,1.8,1.5,4.5,0.7c2.7-0.8,1.7,0.8,3.9,0.3c2.2-0.5,4-0.5,4-0.5s-2,2.6-3.4,2.7
			c-1.4,0.1-3.2,0.1-3.3,0.9c-0.2,0.8,1.8,1.8,3.3,1.3c1.6-0.5,2.2-0.9,3.1-0.4c0.9,0.5,3,1.2,5.3,0.6c2.3-0.6,2.2-0.2,3.8-1.3
			c1.6-1,6.8-3.3,12.2-10.3c-2.9,5.9-5.4,9-9.5,11.1c0.7,0.1,2.5-0.3,2.5-0.3s-1.4,1.6-0.5,2.4c1,0.7,2.8-1,4.1-2
			c1.3-1,3.1-3.1,3.1-3.1s-0.3,2.2-0.7,3.2c-0.4,1,0.5,1.6,1.8,1.3c1.3-0.4,4.7-3.4,4.7-3.4l-0.4,13.6h-11.9l-3,1.2h39.7l-3.4-1.6
			l-12.5,0.3c0,0,0.3-3-0.1-5.5c-0.4-2.5-0.7-8-0.7-8s3.7,3.5,6,3.1c2.3-0.4,0.1-2-0.2-4.3c2.3,2.8,3.8,3,4.5,3.9
			c0.7,0.8,2.4,1.4,3,1c0.6-0.5-0.9-2.4-0.9-2.4l3,0.7c0,0-3.7-2.3-5.3-3.9c-1.5-1.6-5-7.7-5-7.7s3.1,4.3,6.8,6.6
			c3.7,2.3,5.6,4,8.5,4.7c2.9,0.7,4.8,0.1,6-0.4c1.3-0.4,1.4-0.4,2.9,0.1c1.4,0.4,3.7,0,3.6-1.1c-0.1-1.1-1.6-1-3-1
			c-1.4,0-3.2-2.6-3.2-2.6s2,0,3.3,0.4c1.3,0.4,1-0.3,2.8-0.3s2.4,0.5,3.6-0.1c1.2-0.6,5-1.6,4.7-2.7c-0.3-1-1.2,0-2.8-0.1
			c-1.6-0.1-2.9-1.2-4-1c-0.5-1.1-2-2.1-3.1-1.6c-1.2,0.5-2.1,0-4.1-1.5c-2-1.4-3.2-0.9-4.3-1.5c-1.1-0.6-2.8-1.5-4.8-2.3
			c-2-0.8-1.9,0.1-3-0.4c-1.1-0.5-4.2-3.4-5.4-5.1c4,3.1,8.2,2.6,9.7,3.3c1.4,0.7,2.6,1.3,4.8,0.6c2.2-0.7,2.1-0.3,3.5,0
			s2.9,0.5,4.6,0.7c1.8,0.2,4-0.1,4.3-0.9c0.3-0.8-6.5-4.3-6.5-4.3s4.6,0.9,7.4,0.2c2.8-0.7,9-2.7,9.1-3.4c0.1-0.7-0.9-1-4.2-1.3
			c-3.3-0.3-11.4,0.4-13,0c-1.6-0.4-10.1-4.4-10.1-4.4s8.8,2.6,13,2.1c-3.2-1.3-6.7-3.5-7.8-3.6c-1.1-0.1-2.2-1.1-2.2-1.1
			s3,0.4,4,0.4c1,0,0.1-1.3,1.2-1.7c1.1-0.4,2.1,0.3,2.7-0.3c0.7-0.5-0.3-0.7,0.2-0.9c0.4-0.2,3.4,0.3,3.4-1c0-1.3-5.5-2.6-8-4.3
			c-2.5-1.7-1.7-2-3.2-1.9c-1.5,0.1-3.2-3.9-3.2-3.9s4-0.2,6.8,0.1c2.7,0.3,6.9-0.2,6.7-1.4c-0.2-1.2-4.2-0.4-4.4-1.6
			c-0.2-1.2,1.5-0.5,2.1-1c0.5-0.5-0.8-2.1-2.3-2.1c-1.5-0.1-2.1-0.1-3-0.5c-0.9-0.4-0.8-1-1.6-1.1c-0.8-0.1-1.2,0-1.2-0.3
			s0.5-1.9,0-2.5c-0.5-0.7-1.3-0.2-1.6-0.4c-0.3-0.2-1.3-2.1-5.2-3.5c-3.9-1.3-8.5-8.3-9.1-9.7c3.2,2.8,3.1,2.5,3.8,3.5
			c0.7,1,2.4,1.7,3.4,2.5c1,0.7,2.5,2.3,3.6,2.3c1.1,0,1.8-0.4,2.8-0.1c1,0.3,1.7-0.1,2.8,0c1.1,0.2,1.4,0.4,2.3,0.1
			c0.9-0.4,1.7-0.1,1.8-0.7c0.1-0.6-0.8-1.1-1.7-1.5c-0.9-0.4-1-1-2-1.5c-1-0.5-1.1-0.1-2.6-0.9c-1.5-0.9-1.7-0.7-2.1-0.9
			c-0.3-0.2-1.4-1.8-2.2-2.4c-0.8-0.5,0.2-1,0.9-0.5c0.8,0.5,2,1,3,1s3.4,0.1,3.6-0.7s-1.6-0.8-2.5-1.8c-0.8-1-0.6-0.9-1.6-1.1
			c-1-0.2-1.6-1.5-1.7-2c-0.1-0.5-0.2-2.2-1.1-2.7c-0.9-0.6-2.8-0.7-4.1-1.3c-1.3-0.6-3.8-1.8-4.4-2.5c1.1-0.2,0.2-2.1-0.2-2.4
			c2.8,1.9,6.1,3.2,7.6,3.3c1.5,0.1,3.3-0.3,3.3-0.3s-4.8-2.4-6.4-4.3c1.4-0.4,2.8,0.1,3.5-0.6c0.8-0.7,1.3-0.2,1.5-1
			c0.2-0.9-1.5-0.9-2.6-0.7c-1.1-1.1-4.3-2.9-6.5-3.8c-2.2-0.9-4.2-3-4.2-3s1.3-0.3,2.1,0.3c0.8,0.6,4.7,1.7,5.4,0.5
			c0.7-1.2-1.3-1.1-2.7-4.4c-1.4-3.3-3.9-7-8-6.5c-4.1,0.5-9.5,3.9-9.5,3.9s6.4-5.5,9.6-6.3c3.1-0.8,4.4,0.7,5.5-0.6
			c1.2-1.3-1-1.3-2.2-2.3c-1.2-1-0.9-1,0-1.8c0.9-0.8,1.1-2.7-0.5-2.6c-1.6,0.1-4.9,2.3-5.8,4.4c1-3.3,1.8-7.3,1-7.4
			c-0.8-0.1-1.7,0.2-1.7,0.2s0.2-0.9-0.3-1.7c1.5-1.7,1.6-5.6,0.6-6.1c-1-0.5-2.4,1.9-2.4,1.9S233.3,80.9,232.3,80.9z"/>
		<path class="st0" d="M309.5,21.2c-1.9,0.1-2.2,4.8-1.9,5.6c0.2,0.8-1.1,1.6-1.2,3.1c-0.1,1.5,0,2.4,0,2.4s-3.8-3.5-5-1.1
			c-1.2,2.4,0.4,4.5,0.4,4.5s-0.5,1.9-0.1,3.4c0.4,1.4,0.8,1.2,1.2,2.1c0.4,0.9,0.4,1.9-0.6,1.9c-1.1,0-2.9-0.9-3.9,0
			c-1,0.9-2,0.8-2.2,2.3c-0.2,1.5-1,2.1-2.3,2.2c-1.3,0.1-1.7,0.9-1.6,1.7c0.1,0.8,2.2,1.2,3.9,1c1.7-0.2,4.1,0,4.5,0.7
			c0.4,0.7,1.2,1.7-0.8,2c-1.9,0.3-3.4,0.4-3.8,0.8c-0.4,0.4-2.1,1.3-3.7,1.8c-1.6,0.5-1.7,1.9-1.7,2.5c0,0.6-0.8,0.7-0.4,1.7
			c0.3,1,0.1,1.2-1.2,2.1c-1.2,0.9-4.3,1.4-4.9,2.2c-0.6,0.9-2.5,1.2-2.3,2.4c0.1,1.2,1.7,0.9,2.8,1.2c1.1,0.3,0.2,0.7-0.2,0.8
			c-0.4,0.1-2.6,0.9-4.1,1.7c-1.6,0.9-4.9,0.8-4.9,0.8s2.7,1.8,8.3,1c5.6-0.8,12.6-3.7,12.6-3.7s-6.8,4.9-10,6.5
			c-3.2,1.6-4.8,2.4-5,3.1c-2.4-0.1-4.3-0.1-4.6,0.5c-0.3,0.6,1.5,2.8,6.2,2.6c-3,3.9-8.9,6.8-8.9,6.8s6.3,2.6,15-5.5
			c-1.7,2.6-1.2,3.5-2.7,5.2c-1.6,1.6-2.8,3.6-4.4,3.9c-1.5,0.3-3.8,1.7-4.1,2.9c-0.4,1.3-0.6,3.9-1.7,4.5c-1.2,0.6-1.8,0.3-2.8,1.6
			c-1,1.3-3.2,1.7-3.7,2.6c-0.5,0.8,0.9,2.3,3.7,1.8c2.8-0.5,6.1-2.6,7.1-2.3c0.9,0.4-1.4,1.4-2.2,2.4c-0.8,0.9,0.3,1.2-1.2,1.9
			c-1.4,0.7-2.2,2-4.8,2.7c-2.6,0.7-2.8,1.4-4.1,2.1c-1.2,0.7-3.2,0.6-3.9,1.3c-0.7,0.6-0.6,2.2,1.1,2.5c1.7,0.3,4-0.3,6.6,0
			c2.6,0.3,3.7-0.3,5.5-0.6c1.8-0.4,3.9-1.4,5.9-2.3c2.1-0.9,2.8-0.9,4.2-2.3c1.4-1.4,4.1-3.8,4.1-3.8s-2.3,3.4-3.7,5.3
			c-1.4,1.9-4.7,4.6-7.2,5.9c-2.5,1.3-3.9,2.6-6.1,3.1c-2.2,0.6-3.8,1.9-4.6,4c-0.8,2.1-8.2,5.7-10.8,5.5c-2.6-0.2-3.9,0.4-4,1
			c0,0.6,0.5,2.3,3.7,2.4c3.2,0.1,4,0.6,4,0.6s-2.6,1.5-2.5,2.5c0.1,1,3.8,0.5,5.2,0.5c1.4,0,4.2-1.1,5.6-1.1s3.1-0.1,3.1-0.1
			s-0.5,1.1,0.3,1.6c0.8,0.5-2.4,5.2-3.5,5.6c-1.2,0.4-2.5,0.9-3.1,2.2c-0.6,1.3-8.1,4.2-8.8,4.6c-0.7,0.4-3.3,1-3.2,1.8
			c0.1,0.9,0.6,2.1,5.1,1.8c-0.1,1,0.8,1.5,2.6,1.3c1.7-0.3,2.2,0.5,2.2,1.4c0,0.9,1.3,1.2,2.9,0.9c1.6-0.3,4.6-0.6,4.6-0.6
			s-1.8,1.7-4.8,2.4c-2.9,0.7-6.4,4.3-8.8,4.6c4.7,1,16.2-2.5,16.2-2.5s-10.4,5.2-13.7,5.7c-3.4,0.4-12,0.9-15.5,0.4
			c-3.5-0.5-6.1,1.6-7.8,1.6c-1.7,0-1.6,1.2,1.4,1.9c3,0.8,6.7,2.2,8.7,3.1c1.9,0.9,13.3-0.4,13.3-0.4s-6.3,3.4-8.1,4.8
			c-1.8,1.3-2.2,2.6-0.4,2.5c1.8-0.1,1.5,0.6,3.2,0.6c1.7,0,4.3-1.4,6.2-1c1.9,0.5,4-1.2,5.2-1.2c1.2,0,0.5,0.9,3.7,0.9
			c3.2,0,4.9-0.7,6.2-1.3c1.3-0.6,4.3-0.1,6.4-0.8c2.2-0.7,6.6-4.4,6.6-4.4s-5.6,6.3-7.5,7.4c-1.9,1.1-3.1,0.6-3.9,0.8
			s-3.2,2.4-4.8,3c-1.6,0.6-5.6,1.2-6.5,2.1c-0.9,0.8-3,1.5-4.1,1.9c-1.1,0.4-1,1.4-3.3,1.5c-2.3,0.1-3.3-0.5-4.6,1.3
			c-1.3,1.8-4.7,1.1-5.4,1.7c-0.7,0.6-4.1-0.5-4.7,0.1c-0.6,0.5,1.1,2.7,3.4,3.1c2.2,0.5,2.6,2.1,6.4,1c3.8-1.1,2.5,1.1,5.6,0.4
			c3.1-0.7,5.7-0.7,5.7-0.7s-2.8,3.7-4.8,3.8c-2,0.1-4.5,0.1-4.8,1.3c-0.2,1.2,2.5,2.5,4.7,1.9c2.2-0.6,3.2-1.3,4.4-0.6
			c1.3,0.7,4.3,1.7,7.5,0.9c3.3-0.8,3.2-0.4,5.4-1.8c2.2-1.5,9.7-4.7,17.4-14.6c-4.2,8.3-7.6,12.9-13.6,15.9c1,0.1,3.5-0.4,3.5-0.4
			s-2,2.3-0.6,3.4c1.4,1,4-1.4,5.8-2.8c1.9-1.4,4.4-4.4,4.4-4.4s-0.4,3.1-1,4.5c-0.6,1.5,0.6,2.3,2.5,1.8c1.9-0.5,6.7-4.9,6.7-4.9
			l-0.6,19.3h-17l-4.3,1.7h56.5l-4.9-2.2l-17.7,0.4c0,0,0.4-4.3-0.1-7.9c-0.6-3.5-1-11.3-1-11.3s5.3,5,8.6,4.4
			c3.2-0.6,0.1-2.8-0.2-6.1c3.3,4,5.4,4.3,6.3,5.5c0.9,1.2,3.5,2,4.3,1.4c0.9-0.6-1.2-3.4-1.2-3.4l4.3,0.9c0,0-5.3-3.2-7.5-5.6
			c-2.2-2.3-7.1-11-7.1-11s4.4,6.1,9.7,9.4c5.3,3.3,7.9,5.7,12.1,6.6c4.2,0.9,6.8,0.1,8.6-0.5s2-0.5,4.1,0.1c2.1,0.6,5.3,0,5.2-1.6
			c-0.1-1.6-2.3-1.4-4.3-1.4c-2,0-4.6-3.6-4.6-3.6s2.8,0,4.7,0.6c1.9,0.6,1.5-0.4,4-0.4s3.4,0.7,5.2-0.1c1.8-0.8,7.1-2.3,6.7-3.8
			c-0.4-1.5-1.7,0-4-0.1c-2.3-0.1-4.2-1.8-5.6-1.4c-0.8-1.6-2.8-3-4.5-2.2c-1.7,0.8-3,0-5.9-2.1c-2.8-2.1-4.5-1.3-6.1-2.2
			c-1.6-0.8-4-2.1-6.9-3.2c-2.8-1.1-2.7,0.1-4.2-0.5c-1.5-0.6-6-4.8-7.7-7.3c5.7,4.4,11.7,3.7,13.7,4.7c2,1,3.7,1.8,6.8,0.8
			c3.1-1,3-0.4,5,0c2.1,0.4,4.1,0.6,6.6,0.9c2.5,0.3,5.6-0.1,6.1-1.3c0.5-1.2-9.2-6.1-9.2-6.1s6.5,1.3,10.5,0.2
			c4-1,12.8-3.9,12.9-4.9c0.1-1-1.3-1.5-6-1.9c-4.7-0.4-16.2,0.6-18.5,0c-2.3-0.6-14.3-6.3-14.3-6.3s12.6,3.6,18.6,2.9
			c-4.5-1.9-9.6-5-11.1-5.1c-1.6-0.1-3.1-1.6-3.1-1.6s4.3,0.6,5.7,0.6c1.4,0,0.1-1.9,1.8-2.4c1.6-0.5,3,0.4,3.9-0.4
			c0.9-0.8-0.4-1,0.2-1.3c0.6-0.3,4.9,0.5,4.9-1.4c0-1.8-7.8-3.8-11.4-6.1c-3.5-2.4-2.4-2.8-4.6-2.7c-2.2,0.1-4.6-5.6-4.6-5.6
			s5.7-0.2,9.6,0.2c3.9,0.4,9.8-0.3,9.5-2c-0.3-1.7-6-0.5-6.3-2.3c-0.3-1.7,2.2-0.7,2.9-1.4c0.7-0.7-1.1-2.9-3.2-3
			c-2.2-0.1-2.9-0.1-4.2-0.7c-1.3-0.6-1.1-1.4-2.3-1.5c-1.2-0.1-1.6,0-1.7-0.4c-0.1-0.4,0.7-2.7,0-3.6c-0.7-0.9-1.8-0.3-2.3-0.5
			s-1.9-3-7.4-4.9c-5.5-1.9-12-11.8-12.9-13.8c4.5,4,4.4,3.5,5.4,5c1,1.4,3.4,2.5,4.8,3.5c1.4,1,3.6,3.2,5.1,3.2
			c1.5,0,2.6-0.5,4-0.1c1.4,0.4,2.4-0.2,3.9,0c1.6,0.2,2,0.6,3.3,0.1c1.3-0.5,2.4-0.1,2.5-1c0.1-0.8-1.1-1.6-2.4-2.2
			c-1.3-0.6-1.5-1.4-2.8-2.1c-1.4-0.6-1.6-0.1-3.7-1.3c-2.1-1.3-2.5-0.9-2.9-1.3c-0.5-0.3-2.1-2.6-3.1-3.4c-1.1-0.8,0.3-1.4,1.3-0.7
			c1.1,0.7,2.8,1.4,4.3,1.5c1.4,0,4.9,0.2,5.2-1c0.3-1.2-2.3-1.1-3.5-2.6c-1.2-1.5-0.8-1.3-2.2-1.6s-2.2-2.2-2.4-2.9
			c-0.2-0.7-0.3-3.1-1.5-3.9c-1.2-0.8-3.9-1-5.8-1.8c-1.9-0.8-5.4-2.6-6.2-3.6c1.5-0.2,0.2-3-0.3-3.5c3.9,2.7,8.7,4.5,10.8,4.7
			c2.1,0.1,4.7-0.4,4.7-0.4s-6.9-3.4-9.1-6.2c2-0.6,3.9,0.2,5-0.8c1.1-1,1.8-0.2,2.1-1.5c0.2-1.3-2.2-1.2-3.7-1
			c-1.6-1.6-6.1-4.1-9.3-5.4c-3.1-1.3-6-4.3-6-4.3s1.9-0.4,3.1,0.5c1.1,0.9,6.7,2.4,7.6,0.7c1-1.7-1.8-1.5-3.8-6.3
			c-2-4.8-5.6-9.9-11.4-9.2c-5.8,0.7-13.6,5.6-13.6,5.6s9.2-7.9,13.6-8.9c4.5-1.1,6.2,1,7.9-0.8c1.7-1.8-1.4-1.8-3.1-3.2
			c-1.7-1.4-1.2-1.4,0-2.5c1.2-1.2,1.5-3.8-0.7-3.8c-2.2,0.1-7,3.3-8.3,6.2c1.4-4.8,2.6-10.5,1.4-10.6c-1.2-0.1-2.5,0.2-2.5,0.2
			s0.3-1.3-0.5-2.4c2.1-2.4,2.3-8,0.9-8.7c-1.4-0.7-3.4,2.8-3.4,2.8S310.9,21.2,309.5,21.2z"/>
	</g>
</g>
</svg>
