<?xml version="1.0" encoding="utf-8"?>
<!-- Generator: Adobe Illustrator 25.2.3, SVG Export Plug-In . SVG Version: 6.00 Build 0)  -->
<svg version="1.1" id="Layer_1" xmlns="http://www.w3.org/2000/svg" xmlns:xlink="http://www.w3.org/1999/xlink" x="0px" y="0px"
	 viewBox="0 0 613 125" style="enable-background:new 0 0 613 125;" xml:space="preserve">
<style type="text/css">
	.st0{fill:#FFFFFF;}
</style>
<path class="st0" d="M278.8,105.2c0,2-1.6,3.7-4.6,3.7c-1.8,0-3.2-0.5-4.3-1.3V105c1,1,2.4,1.7,4.2,1.7c1.6,0,2.5-0.8,2.5-1.6
	c0-1.1-0.9-1.6-2.9-2.4c-1.9-0.8-3.4-1.8-3.4-3.8c0-2.1,1.8-3.4,4.3-3.4c1.2,0,2.3,0.3,3.1,0.9v2.3c-0.8-0.7-1.8-1.1-3.1-1.1
	c-1.3,0-2.1,0.6-2.1,1.3c0,1,1.3,1.5,2.8,2.1C277.6,102.1,278.8,103.1,278.8,105.2z M243.7,103.5l3.1,5.1h-2.6l-2.8-4.6h0h-2.3v4.6
	h-2.3V95.7h5c2.3,0,4.2,1.8,4.2,4.1C246.1,101.5,245.1,102.9,243.7,103.5z M243.8,99.8c0-1.2-0.8-2-1.9-2h-2.6v4.1h2.5
	C242.9,101.9,243.8,101.1,243.8,99.8z M286.5,108.6h2.3V95.7h-2.3V108.6z M269.8,28.6l-1.1-2.5h-5.5l-1.1,2.5h-2.4l6.4-13.5
	l6.4,13.5H269.8z M267.8,24.2l-1.9-4.2l-1.9,4.2H267.8z M256.5,103h5.5v-2.1h-5.5v-3.1h5.9v-2.1h-8.2v12.9h8.3v-2.1h-6V103z
	 M292.1,22.6l5.2,6h2.8l-5.7-6.6l5.5-6.3h-2.8l-5,5.9v-5.9h-2.3v12.9h2.3V22.6z M325.4,25.2c0-2.1-1.2-3.1-3.5-4.1
	c-1.4-0.6-2.8-1.1-2.8-2.1c0-0.8,0.7-1.3,2.1-1.3c1.3,0,2.2,0.4,3.1,1.1v-2.3c-0.9-0.6-1.9-0.9-3.1-0.9c-2.5,0-4.3,1.3-4.3,3.4
	c0,2,1.5,3,3.4,3.8c2,0.9,2.9,1.3,2.9,2.4c0,0.8-0.8,1.6-2.5,1.6c-1.8,0-3.1-0.7-4.2-1.7v2.5c1.1,0.8,2.5,1.3,4.3,1.3
	C323.8,28.9,325.4,27.2,325.4,25.2z M238.9,28.6h2.3V17.9h3.5v-2.1h-9.3v2.1h3.5V28.6z M92.1,44.3v9.5h18.7v4.5H92.1v9.5h28.2v-1.1
	v-8.4v-4.5v-9.5h-9.5H92.1z M186.1,53.8h37.4v-9.5h-37.4V53.8z M186.1,81.7h37.4v-9.5h-37.4V81.7z M186.1,67.7h37.4v-9.5h-37.4V67.7
	z M77.8,81.7h9.5V44.3h-9.5V81.7z M391.7,67.7H429v-9.5h-37.4V67.7z M391.7,81.7H429v-9.5h-37.4V81.7z M372.7,103h5.5v-2.1h-5.5
	v-3.1h5.9v-2.1h-8.2v12.9h8.3v-2.1h-6V103z M375.1,21.4v7.3h2.3V15.3l-6.6,8l-6.6-8v13.3h2.3v-7.3l4.3,5.2L375.1,21.4z M517.3,60.6
	l16.1-16.2h-13.8l-9.2,9.2l-2.5,2.5v9l2.5,2.4l14,14.1h13.8L517.3,60.6z M391.7,53.8H429v-9.5h-37.4V53.8z M493.9,81.7h9.5V44.4
	h-9.5V81.7z M343.3,28.6h2.3V15.8h-2.3V28.6z M351.4,102.2c0,3.8,3,6.7,6.8,6.7c1.6,0,2.9-0.5,4-1.3V105c-1.1,1.1-2.4,1.7-4,1.7
	c-2.6,0-4.5-1.9-4.5-4.6c0-2.6,2-4.6,4.5-4.6c1.6,0,3,0.6,4,1.7v-2.5c-1.1-0.9-2.5-1.3-4-1.3C354.4,95.5,351.4,98.3,351.4,102.2z
	 M303.2,81.7h9.5V58.4h-9.5V81.7z M289.2,53.8h37.4v-9.5h-37.4V53.8z M318.7,103h5.5v-2.1h-5.5v-3.1h5.9v-2.1h-8.2v12.9h8.3v-2.1h-6
	V103z M308.6,102.2c0,3.8-2.4,6.4-6.7,6.4h-4.6V95.7h4.6C306.2,95.7,308.6,98.4,308.6,102.2z M306.3,102.2c0-2.5-1.2-4.4-4.6-4.4
	h-2.1v8.7h2.1C305.1,106.5,306.3,104.6,306.3,102.2z M341.4,103.8l-8.8-8.6v13.4h2.3v-8.1l8.8,8.6V95.7h-2.3V103.8z"/>
</svg>
