<?xml version="1.0" encoding="utf-8"?>
<!-- Generator: Adobe Illustrator 25.2.1, SVG Export Plug-In . SVG Version: 6.00 Build 0)  -->
<svg version="1.1" id="Layer_1" xmlns="http://www.w3.org/2000/svg" xmlns:xlink="http://www.w3.org/1999/xlink" x="0px" y="0px"
	 viewBox="0 0 500 500" style="enable-background:new 0 0 500 500;" xml:space="preserve">
<style type="text/css">
	.st0{fill:#FFFFFF;}
</style>
<path class="st0" d="M34.2,353c0-1.2-0.1-2.5-0.1-3.7c0-86.1,0-172.2,0-258.3c0-4.4-0.6-3.8,3.8-3.8c141.1,0,282.2,0,423.2,0
	c4.5,0,3.8-0.3,3.8,3.8c0,86.2,0,172.4,0,258.6c0,1.1-0.1,2.3-0.1,3.4c-3.7,0-7.3,0-11,0C314,352.9,174.1,353,34.2,353z
	 M426.2,217.6c0,0.4,0.1,0.7,0.6,0.6c0.6,1.5,1.6,1.4,2.8,0.8c1.4-0.8,2-2.6,1.4-4c-0.6-1.4-2.4-2.1-3.7-1.5
	C426,214.1,425.6,215.6,426.2,217.6z M269,168.1l0.1,0.1L269,168.1c-0.9-3.6-1.9-7.2-2.9-10.8c-0.4-1.4-0.2-2.4,1-3.2
	c1.4-1,2.6-2.1,3.9-3.1c1.5-1.2,2.9-2.5,4.4-3.7c-2.9-0.6-5.6-0.5-8.3-0.6c-4.8-0.2-3.8,0.8-5.5-4.1c-1-2.8-1.9-5.7-2.8-8.6
	c-1.6,3.3-2.6,6.6-3.7,9.9c-0.9,2.8-0.9,2.8-3.9,2.8c-3.1,0-6.2,0-9.2,0c-0.1,0.2-0.1,0.4-0.2,0.7c2.3,1.9,4.4,4,6.9,5.6
	c2.6,1.7,2.9,3.5,1.9,6.3c-1,2.9-1.9,5.9-2.6,9.5c2.5-1.9,4.5-3.4,6.6-5c3.9-3,3.9-2.9,7.9,0.1C264.7,165.3,266.5,167.3,269,168.1z
	 M233.3,311c0-2-0.8-3.4-1.4-4.9c-11.6-30.8-23.3-61.6-34.9-92.5c-6.6-17.5-13.2-34.9-19.8-52.4c-0.6-1.7-1.4-2.4-3.3-2.4
	c-7.6,0.1-15.2,0-22.9,0.1c-2.6,0-2.6,0-3.5,2.4c-8.5,22.5-16.9,45.1-25.4,67.7c-0.3,0.7-0.8,1.4-0.5,2.4c7.4,0.8,14.7,1.7,21.9,3.5
	c2.9,0.7,2.9,0.7,4-2.1c4.6-11.9,9.1-23.7,13.7-35.6c0.4-0.9,0.5-2,1.6-2.8c8.3,22,16.4,43.8,24.6,65.7c-1.2,0.2-1.8-0.5-2.5-0.9
	c-16-9.5-33.3-15.7-51.5-19.7c-19-4.1-38.2-5.5-57.5-4.9c-2.3,0.1-4.6,0.4-6.9,0.5c-1.1,0.1-1.4,0.6-1.4,1.6c-0.1,2,0.1,2.3,2.2,2.3
	c7-0.1,14,0.3,20.9,1.1c20.8,2.4,40.3,8.7,58.5,19c22.1,12.5,40.6,29.1,55.1,50.1c1,1.5,2.1,2,3.8,2c5.4-0.1,10.9,0,16.3,0
	C227.4,311,230.3,311,233.3,311z M289.3,238.2c2.3-0.9,4-1.6,5.5-2.8c1.5-1.2,2.7-2.7,2.9-4.7c0.4-3.5,0.5-7.1,0-10.6
	c-0.4-2.4-1.7-3.9-3.9-4.8c-3.3-1.4-6.8-2.1-10.3-2.1c-6.9,0-13.8,0-20.6,0c-2.9,0-2.6,0-2.6,2.8c0,13.4,0,26.7,0,40.1
	c0,0.5,0,1,0,1.6c-0.1,1.4,0.3,2.1,1.9,2c3.1-0.1,6.3-0.1,9.4,0c1.7,0.1,2.1-0.5,2.1-2.1c-0.1-5.9,0-11.9,0-17.8c0-1.1,0-2.2,0-3.2
	c1.1-0.3,1.4,0.5,1.8,0.9c2.2,2.1,4.2,4.3,6.5,6.3c2.3,1.9,3.2,4.2,3,7.2c-0.2,2.4,0,4.8,0.6,7.1c0.2,0.9,0.6,1.8,1.8,1.8
	c3.8,0,7.6,0,11.7,0c-1-2.4-1.2-4.6-1.2-6.8c0.1-2-0.1-4,0-5.9c0.3-3.3-1.3-5.3-4.1-6.7C292.4,239.5,291.1,239,289.3,238.2z
	 M387.9,259.5c3.8,0,7.2,0,10.5,0c3,0,2.9,0,3.4-3c0.7-3.9,1.3-7.9,2-11.8c0.9,0,1.2,0.4,1.6,0.8c3,2.9,6,5.8,9,8.7c1.1,1,2,2,2,3.7
	c0,0.7,0.1,1.6,1.1,1.6c4,0,8,0,12,0c0-0.5,0.1-0.6,0.1-0.7c-2.8-14.7-5.7-29.5-8.5-44.2c-0.3-1.4-1.1-1.5-2.2-1.5
	c-6.2,0-12.3,0-18.5,0c-3.4,0-2.8-0.4-3.5,2.9c-2.2,10-4.2,20-6.3,30C389.8,250.4,388.9,254.8,387.9,259.5z M328.3,257.9
	c-0.2,0.1-0.5,0.2-0.7,0.3c-2.7-2.7-5.4-5.4-8.2-8.1c-1.2-1.2-1.8-2.4-1.7-4.1c0.1-5,0-10,0-15c0-5.2,0-10.4,0-15.7
	c0-2.2-0.1-2.2-2.3-2.2c-2.7,0-5.4,0-8.1,0c-2.6,0-2.6,0-2.6,2.5c0,11.2-0.1,22.3,0,33.5c0,6,3.4,9.7,9.4,10.4
	c5.9,0.7,11.8,0.8,17.8,0.2c6-0.7,9.3-4.3,9.3-10.4c0-11.3,0-22.5,0-33.8c0-0.4,0-0.8,0-1.3c0-0.7-0.3-1.2-1.1-1.2
	c-3.5,0-7.1,0-10.6,0c-1,0-1.3,0.5-1.2,1.4c0,0.8,0,1.7,0,2.5c0,12.1,0,24.2,0,36.3C328.3,254.8,328.3,256.4,328.3,257.9z
	 M237,254.3c-0.8-0.5-0.9-1-1.1-1.5c-2.7-9.6-5.5-19.2-8.2-28.9c-0.9-3-1.7-6-2.6-9c-0.2-0.7-0.3-1.7-1.4-1.7c-4.1,0-8.2,0-12.4,0
	c0.1,0.7,0.1,1,0.2,1.3c3.9,14.5,7.9,29,11.8,43.5c0.4,1.5,1.2,1.7,2.4,1.7c6.8,0,13.6-0.1,20.3,0c1.7,0,2.3-0.5,2.6-2.2
	c1.6-9,3.2-18.1,4.9-27.1c1-5.6,2-11.2,3.1-17c-3.6-0.4-6.9-0.1-10.2-0.2c-3,0-3,0-3.4,3C240.9,228.8,238.9,241.4,237,254.3z
	 M362.4,213.1c-4,0-7.9,0-11.8,0c-0.9,0-1.3,0.5-1.3,1.4c0,0.5,0,1,0,1.6c0,13.4,0,26.9,0,40.3c0,0.5,0,1,0,1.6
	c-0.1,1.2,0.5,1.6,1.7,1.6c3.2,0,6.5-0.1,9.7,0c1.4,0,1.8-0.6,1.7-1.9c-0.1-3.5,0-7.1,0-10.6c0.1-5.1-0.7-4.2,4.2-4.5
	c3.5-0.2,7.1-0.3,10.6-0.6c5.5-0.5,8.7-3.9,9-9.3c0.2-3.2,0.2-6.5,0.2-9.7c0-5.4-3.3-7.8-6.8-9c-1.9-0.6-3.8-1-5.8-1
	c-2.9,0-5.8,0-8.8,0c-0.7,0-1.5-0.4-1.8,0.3c2.2,2.3,4.3,4.7,6.5,6.8c4.8,4.7,4.9,4.8,4.3,11.4c-0.3,3-1.7,4.5-4.7,4.8
	c-1.4,0.1-2.9,0-4.4,0c-2.4-0.1-2.4-0.1-2.4-2.4C362.4,227.2,362.4,220.3,362.4,213.1z M92.7,307.5c0.2,0.1,0.4,0.2,0.6,0.3
	c4.6-3.1,9.2-6.2,13.7-9.2c2.6-1.7,2-2,4.6,0.4c3.1,2.9,6.3,5.8,9.4,8.7c1,0.9,1.8,2,3.1,2.6c0.3-0.8,0.1-1.4,0-2
	c-1.1-4.9-2.2-9.8-3.3-14.6c-0.9-3.8-0.9-3.8,2.3-6c3.6-2.4,7.1-4.8,10.6-7.2c0.8-0.6,1.9-0.9,2.4-1.9c-0.6-0.6-1.4-0.4-2.1-0.5
	c-4.8-0.4-9.6-0.8-14.3-1.1c-2.6-0.2-2.7-0.2-3.3-2.8c-0.7-3.1-1.4-6.3-2.1-9.5c-0.6-2.8-1.3-5.6-2.1-9c-0.8,1.9-1.3,3.2-1.7,4.4
	c-1.7,4.6-3.5,9.2-5.1,13.8c-0.5,1.4-1.2,1.9-2.8,1.7c-3.2-0.4-6.4-0.6-9.7-0.8c-2.5-0.2-5-0.3-8.2-0.5c4,3.7,7.5,6.8,10.9,10
	c1.4,1.3,3.5,2.2,3.9,3.9c0.4,1.8-1.1,3.7-1.7,5.6C96.1,298.4,94.4,302.9,92.7,307.5z M223.1,159.2c-0.8,0.5-0.9,1.2-1.1,1.7
	c-1.3,4.2-2.8,8.3-4,12.5c-0.5,1.9-1.4,2.4-3.3,2.4c-4.6,0-9.1,0.2-14,0.4c0.7,1.2,1.6,1.8,2.4,2.4c3,2.5,5.9,4.9,9,7.3
	c1.3,1,1.5,2,1.1,3.5c-1.2,4-2.3,8-3.5,12c-0.3,0.9-0.6,1.8-0.5,3.1c0.8-0.6,1.4-1,2-1.5c3.3-2.5,6.7-5,10-7.5c1.1-0.9,1.9-0.9,3,0
	c3.1,2.5,6.3,4.8,9.5,7.2c0.8,0.6,1.4,1.4,2.9,1.6c-1.1-3.8-2.1-7.2-3-10.8c-0.5-2-1.9-4.1-1.4-6c0.5-1.9,3-2.8,4.5-4.2
	c1.3-1.2,2.7-2.3,4.1-3.4c1.3-1.1,2.6-2.2,4.4-3.7c-5.1-0.2-9.6-0.3-14.1-0.4c-2.8-0.1-2.6,0.5-3.6-2.7
	C226.1,168.5,224.6,163.9,223.1,159.2z M285.9,138.7c-0.1,0.2-0.2,0.5-0.3,0.7c1.6,1.3,3.1,2.7,4.8,3.9c1.6,1.1,2.1,2.2,1.4,4.2
	c-0.8,2.1-1.5,4.3-1.8,7c2.3-1.7,4.2-3.1,6.1-4.6c1-0.8,1.8-0.7,2.7,0c1.8,1.5,3.8,2.9,6.3,4.7c-0.6-2.2-1-3.7-1.4-5.2
	c-1.4-5.3-2-3.8,2.3-7.4c1.1-0.9,2.6-1.6,3.2-3.4c-2.4,0-4.5-0.1-6.6,0c-1.6,0.1-2.4-0.5-2.9-2.1c-0.6-2.3-1.4-4.6-2.2-7
	c-0.3,0.4-0.4,0.5-0.5,0.6c-0.6,1.8-1.2,3.6-1.8,5.3c-1.2,3.5-0.4,3.1-4.2,3.2C289.4,138.8,287.7,138.7,285.9,138.7z M288.8,272.8
	c-0.2,0-0.5,0-0.7,0c-0.1-0.1-0.3-0.2-0.4-0.4c-1-1.8-2-3.7-3-5.5c-1.6-3.1-1.9-3.2-5.3-2.9c-1,0.1-1.5,0.4-1.5,1.5
	c0,4.3,0,8.6,0,12.8c0,1.4,0.7,1.5,1.8,1.5c1.1,0,1.4-0.5,1.4-1.5c0-2.9,0-5.8,0-8.7c0.8,0.2,0.9,0.9,1.1,1.4c1.2,2.3,2.4,4.6,3.4,7
	c0.6,1.4,1.4,1.9,2.9,1.8c0.7-0.1,1.5,0,2.2,0c0.9,0,1.3-0.4,1.3-1.3c0-4.4,0-8.8,0-13.1c0-0.9-0.4-1.3-1.3-1.3
	c-1.3-0.1-1.9,0.3-1.9,1.7C288.9,268.1,288.8,270.5,288.8,272.8z M412.8,279.5c-0.7-2.4,0.9-5.4-2.4-6.9c2.3-1.9,3.1-4.7,2-6.7
	c-0.9-1.6-4.5-2.2-7.5-1.2c0.8,0.7,1.4,1.4,2.2,1.9c1.4,1.1,1.6,2.6,0.9,3.9c-0.7,1.6-2.2,1-3.6,0.8c0-2.5,0-4.8,0-6.9
	c-0.7-0.6-1.4-0.4-2-0.4c-2.5,0-2.5,0-2.6,2.6c0,3.2,0,6.5,0,9.7c0,3.6,0,3.6,3.8,3.5c0.2,0,0.4-0.2,0.6-0.3
	c0.5-2.3-0.3-4.7,0.5-7.2c1.9,1.5,3.6,2.7,3.5,5.3c-0.1,2.1,0.2,2.2,2.4,2.2C411.3,279.9,411.9,280,412.8,279.5z M312.2,278.9
	c-2.7-1.6-3.8-3.2-3.6-5.8c0.2-2.9,0-5.8,0-8.6c-1.1-0.5-2.1-0.3-3-0.3c-0.9,0-1.3,0.4-1.3,1.3c0,3.7-0.1,7.3,0.1,11
	c0.1,2.1,1.1,3,3.1,3.3c2.1,0.3,4.2,0.3,6.2,0c1.7-0.2,2.8-1.2,2.8-2.8c0.1-3.9,0-7.7,0-11.6c0-0.5-0.1-1-0.8-1.2
	c-2.3-0.7-3.6,0.1-3.6,2.4C312.2,270.5,312.2,274.4,312.2,278.9z M387.8,279.6c-0.7-3.5-1.2-6.9-1.9-10.2c-0.4-1.7,0-4-1.4-5
	c-1.4-1-3.6-0.2-5.5-0.4c-1.8-0.2-2.3,0.7-2.6,2.2c-0.4,2.5-1.1,4.9-1.5,7.3c-0.3,2-1.1,3.9-1.1,6.1c0.7,0,1.2,0.1,1.7,0.1
	c2.4,0,2.8,0.4,3.1-2.6c0.1-0.7,0-1.5,0.9-2c0.8,0.8,2,1.5,2.6,2.5C383.5,279.9,385.2,280.2,387.8,279.6z M258.8,264.3
	c0.1,0.9,0.8,1.4,1.4,2c0.5,0.6,0.9,1.1,0.9,1.9c0,2.9,0,5.8,0,8.7c0,1.3-0.6,2.3-2.1,2.2c-1.5-0.1-1.8-1.1-1.8-2.4
	c0-3.4,0-6.9,0-10.3c0-0.8,0.5-2-0.8-2.3c-1.1-0.3-3,0.7-3.3,1.8c-0.2,0.6-0.2,1.2-0.2,1.8c0,2.9,0,5.8-0.1,8.7
	c-0.1,1.8,0.8,2.7,2.4,3.1c2.5,0.6,5,0.6,7.4,0.3c2.1-0.3,2.8-1.2,2.9-3.4c0.1-2.4,0.1-4.8,0-7.2c-0.1-4.7-0.2-4.8-4.8-5.2
	C260,264.1,259.4,263.9,258.8,264.3z M240.8,279.5c-1.3-2.2-2.5-4.4-3.8-6.4c-0.8-1.2-0.8-2.2,0-3.4c1.1-1.7,2.3-3.4,2.9-5.4
	c-3.7-0.2-3.7-0.2-5.5,2.8c-0.6,1-0.9,2.3-2.3,3.1c0-1.7-0.1-3,0-4.3c0.2-1.8-0.9-1.8-2.2-1.7c-1.2,0-2.3-0.1-2.2,1.7
	c0.1,4.2,0,8.3,0,12.5c0,0.5-0.2,1.1,0.4,1.4c1.1,0.4,2.3,0.4,3.4,0.1c0.9-0.3,0.5-1.2,0.6-1.9c0.2-1.6-0.5-3.4,0.6-5.2
	c1.3,1.5,1.8,3,2.6,4.5C237,280.2,236.9,280.2,240.8,279.5z M321.7,156.5c1.5-1.1,2.7-1.9,3.8-2.8c0.8-0.6,1.4-0.6,2.2,0
	c1.1,0.9,2.4,1.8,4.1,3c-0.6-2-0.8-3.3-1.3-4.6c-0.5-1.4-0.2-2.4,1-3.2c1-0.7,1.9-1.6,3.3-2.8c-1.9-0.1-3.2-0.2-4.4-0.2
	c-1.4,0.1-2-0.6-2.4-1.9c-0.4-1.3-0.5-2.8-1.7-4c-0.2,0.6-0.3,1-0.4,1.4c-1.4,4.2-1.4,4.2-5.8,4.5c-0.4,0-0.8,0.1-1.5,0.2
	c1.5,1.4,3.4,2.4,4.1,3.9C323.5,152,321.7,153.9,321.7,156.5z M334.6,266.9c0.1-0.2,0.2-0.5,0.3-0.7c1.4,0,2.9,0,4.3,0
	c0.9,0,1.8,0,1.7-1.2c-0.1-1.1-0.9-0.9-1.6-0.9c-2.8,0-5.6,0-8.4,0c-0.8,0-1.8-0.2-1.7,1.2c0,1.1,0.8,1.1,1.5,1
	c1.7-0.2,2.1,0.7,2,2.2c-0.1,2.8,0,5.6,0,8.4c0,3.1,0.2,3.2,3.1,3c1-0.1,1.5-0.4,1.5-1.5c-0.1-1.6-0.1-3.1,0-4.7
	C337.4,271.1,337.3,268.6,334.6,266.9z M354.5,278.1c0.6-2,2.4-2.7,2.3-4.5c-0.2-2.6-0.1-5.2,0-7.8c0.1-1.8-1-1.7-2.2-1.7
	c-1.2,0-2.3-0.1-2.3,1.7c0.1,2.4-0.1,4.8,0,7.2c0.1,2.2-1,5.2,0.5,6.5c1.5,1.3,4.4,0.3,6.7,0.4c0.3,0,0.6,0,0.9,0
	c0.6,0,1.1-0.2,1.1-0.8c0-0.6-0.4-0.9-1-0.9C358.7,278.1,356.8,278.1,354.5,278.1z M429.8,271.9c0-2.2-0.1-4.4,0-6.6
	c0.1-1.8-1-1.7-2.2-1.7c-1.1,0-2.1-0.1-2.1,1.5c0,4.3,0.1,8.5,0,12.8c0,1.6,0.9,1.6,2,1.6c1.2,0,2.3,0.1,2.3-1.7
	C429.8,275.8,429.8,273.9,429.8,271.9z M349.6,163.5c-1-2.5-0.6-4.5,1.8-6c-3.1,0.6-3.9-1.7-5-3.7c-0.1,3-2,3.7-4.5,3.9
	c2.9,1.2,2.4,3.5,1.8,6.5C345.8,161.3,347.6,162,349.6,163.5z M357.2,178.9c1.3-1.3,2.5-0.8,3.8,0c-1.1-1.8,0.4-2.8,1.2-4.1
	c-1.9,0.4-2.6-0.8-3.3-2.3c0,2-1.3,2.3-3.1,2.6C357.1,176.1,357.7,177.2,357.2,178.9z"/>
<path class="st0" d="M34.2,353c139.9,0,279.8,0,419.6,0c3.7,0,7.3,0,11,0c0,1.1,0.1,2.3,0.1,3.4c0,17.7,0,35.5,0,53.2
	c0,0.4,0,0.8,0,1.3c-0.1,2.3-0.1,2.3-2.2,2.4c-0.8,0-1.7,0-2.5,0c-140.6,0-281.2,0-421.7,0c-5.1,0-4.4,0.6-4.4-4.2
	c0-17.5,0-35.1,0-52.6C34.1,355.2,34.2,354.1,34.2,353z M166.6,386.4c-1.1-0.3-1.1-1.3-1.4-2c-1.2-3.3-2.3-6.7-3.4-10
	c-1.7-5-1.7-5-7.1-4.9c-2.3,0.1-2.3,0.1-2.3,2.5c0,7.1,0,14.2,0,21.3c0,0.6-0.1,1.3,0.4,1.9c0.5,0,1.2,0.1,1.8,0.1
	c2.7,0,2.8,0,2.8-2.7c0-4.1,0-8.1,0-12.2c0-0.6-0.2-1.4,0.5-1.9c1.2,0.8,1.2,2.1,1.6,3.1c1.4,3.9,2.8,7.8,4.1,11.8
	c0.5,1.4,1.2,1.9,2.7,1.9c1.7,0.1,2.4-0.7,2.9-2.1c1.4-4.1,2.8-8.3,4.3-12.4c0.3-0.8,0.2-1.9,1.6-2.3c0.4,1,0.3,2,0.3,3
	c0,4,0,7.9,0,11.9c0,0.6-0.2,1.5,0.5,1.7c1.3,0.4,2.7,0.5,4,0c0.8-0.3,0.4-1.5,0.4-2.3c0-7,0-14,0-21c0-0.7,0.1-1.5-0.4-2.3
	c-1.7,0-3.6,0.1-5.5,0c-1.4-0.1-2,0.5-2.4,1.8c-1.3,4.3-2.7,8.5-4.1,12.8C167.5,384.9,167.4,385.8,166.6,386.4z M409.3,383.2
	c1.2-1.2,2.3-2,3-3.2c2.4-5-0.8-10.2-6.7-10.5c-3.6-0.1-7.3,0-10.9,0c-3,0-2.9-0.4-2.9,2.8c0,6.4,0,12.7,0,19.1
	c0,1.2-0.2,2.5,0.2,3.7c0.2,0.1,0.4,0.2,0.6,0.2c4.5,0.3,4.5,0.3,4.5-4.3c0-6.3,0-6.3,6.6-5.8c2.1,0.2,3,0.9,3.6,2.8
	c0.3,0.9,0.3,1.8,0.4,2.8c0.7,5.3,0,4.5,5.2,4.4c0.1,0,0.2-0.1,0.5-0.4C412,391.1,414.1,386.2,409.3,383.2z M244.5,386.2
	c-0.9-0.5-1.2-1.3-1.6-2c-2.5-4.1-5.2-8-7.6-12.2c-1.2-2.2-2.7-2.8-5-2.6c-1.5,0.1-1.9,0.6-1.9,2c0.1,7.3,0.1,14.6,0,21.9
	c0,1.9,0.9,2,2.3,1.9c2.4,0,2.5,0,2.5-2c0-4.3,0-8.6,0-12.8c0-0.6-0.4-1.5,0.7-1.8c1,0.6,1.5,1.7,2.1,2.7c2.3,3.7,4.8,7.3,6.9,11.2
	c1.2,2.2,2.8,3,5.2,2.8c1.4-0.1,2-0.4,2-2c-0.1-7.3,0-14.6,0-21.9c0-2-0.1-2-2.5-2c-2.4,0-2.5,0-2.5,2.1c0,3.9,0,7.7,0,11.6
	C244.9,384.1,245.2,385.1,244.5,386.2z M359.2,369.5c0,8.4,0,16.4,0,24.5c0,1.1,0.6,1.4,1.6,1.4c5.3,0,10.6-0.1,16,0
	c1.7,0,1.9-0.8,1.8-2.1c-0.1-1.2,0.3-2.6-1.7-2.5c-2.6,0.1-5.2,0.1-7.8,0c-4.9-0.1-4.3,1-4.4-4.5c0-2.2,0.1-2.2,2.3-2.2
	c2.5,0,5,0,7.5,0c2.8,0,2.8,0,2.7-2.1c0-1.9,0-1.9-2.6-1.9c-2,0-4,0-5.9,0c-4.3-0.1-4,1-4.1-4.3c0-1.4,0.5-1.8,1.8-1.8
	c3.4,0.1,6.9-0.1,10.3,0c1.8,0.1,1.7-1.1,1.7-2.2c0-1.1,0.3-2.3-1.6-2.3C371.1,369.5,365.3,369.5,359.2,369.5z M264.3,382.3
	c0,3.8,0,7.5,0,11.3c0,1.1,0.2,1.8,1.5,1.8c5.5,0,11.1,0,16.6,0c2,0,1.3-1.5,1.4-2.5c0.1-1.1,0.1-2.1-1.5-2.1
	c-2.8,0.1-5.6,0.1-8.5,0c-4.8-0.1-4.3,0.8-4.3-4.4c0-2.3,0.1-2.4,2.6-2.4c2.8,0,5.6-0.1,8.4,0c1.5,0.1,1.7-0.6,1.7-1.9
	c-0.1-1.1,0.2-2.3-1.7-2.2c-2.8,0.1-5.6,0.1-8.4,0c-2.5,0-2.5-0.1-2.6-2.7c0-0.4,0-0.8,0-1.3c-0.2-1.7,0.6-2.2,2.2-2.1
	c3.3,0.1,6.7,0,10,0c1.9,0.1,1.6-1.2,1.6-2.3c0-1.1,0.2-2.3-1.6-2.3c-5.2,0.1-10.4,0.1-15.6,0c-1.4,0-1.8,0.5-1.8,1.8
	C264.3,374.9,264.3,378.6,264.3,382.3z M216.5,394.9c-0.3-2-1.3-3.9-2-5.8c-2.1-5.9-4.4-11.7-6.4-17.6c-0.6-1.6-1.4-2.5-3.2-2.1
	c-0.4,0.1-0.8,0.1-1.2,0c-1.5-0.2-2.2,0.4-2.7,1.8c-1.2,3.4-2.5,6.8-3.8,10.2c-1.7,4.5-3.4,8.9-5.1,13.4c4.9,0.8,4.9,0.8,6.5-3.3
	c0.1-0.2,0.2-0.4,0.2-0.6c0.2-1.1,0.9-1.5,2-1.5c2.1,0,4.2,0.1,6.2,0c1.9-0.2,2.7,0.7,3.3,2.4c1,3.4,1.2,3.4,4.7,3.3
	C215.4,395.3,215.9,395.4,216.5,394.9z M116,395.1c5,0.4,5,0.4,6.6-3.6c0-0.1,0.1-0.2,0.1-0.3c0.3-1.2,1-1.7,2.2-1.6
	c2.2,0.1,4.4,0.1,6.6,0c1.5-0.1,2.1,0.6,2.6,2c1.3,3.8,1.4,3.8,5.4,3.7c0.4,0,0.8,0.1,1.1-0.6c-1-2.7-2.1-5.6-3.2-8.6
	c-1.9-5-3.8-9.9-5.5-14.9c-0.5-1.3-1.1-1.9-2.5-1.7c-0.7,0.1-1.5,0.1-2.2,0c-1.1-0.1-1.7,0.4-2.1,1.4
	C122.2,378.9,119.1,386.8,116,395.1z M317.1,369.5c-1.4,0-2.4,0.1-3.4,0c-1.5-0.2-2.2,0.4-2.6,1.9c-0.7,2.5-1.5,5-2.4,7.4
	c-1,2.7-1.5,5.6-2.9,8.2c-1.1-0.3-1.1-1.3-1.4-2c-1.2-3.8-2.4-7.5-3.6-11.3c-1.4-4.4-1.4-4.4-5.9-4.1c-0.2,0-0.3,0.2-0.6,0.5
	c0.3,0.9,0.5,1.9,0.9,2.9c2,6.2,4,12.5,6.1,18.7c1.5,4.3,0.2,3.6,5.3,3.8c1.5,0,2.2-0.4,2.6-1.9c1.3-4.4,2.8-8.7,4.3-13
	C314.7,376.8,315.8,373.3,317.1,369.5z M85.8,369.7c0.1,0.4,0.1,0.7,0.2,0.8c1.6,2.8,3.1,5.7,5,8.3c3,4.1,4.4,8.6,3.8,13.7
	c-0.3,2.7,0,2.7,2.7,2.7c2.7,0,2.9,0,2.7-2.7c-0.5-5.1,0.7-9.6,3.8-13.7c1.7-2.2,3-4.8,4.4-7.2c0.3-0.6,1-1.1,0.8-1.9
	c-0.1-0.1-0.2-0.1-0.3-0.1c-5-0.3-5-0.3-7.5,4c-1.2,2-2.4,4-3.7,6.2c-1.9-2.2-3.1-4.3-4-6.4C92.1,369.7,89.6,368.8,85.8,369.7z
	 M334,380.3c0-2.7,0-5.4,0-8.1c0-2.7,0-2.7-2.7-2.7c-0.3,0-0.6,0-0.9,0c-1.2-0.1-1.6,0.4-1.6,1.6c0,7.5,0.1,15,0,22.5
	c0,1.5,0.7,1.7,1.9,1.7c4.8,0,9.6-0.1,14.4,0c1.8,0,1.8-0.9,1.8-2.1c0-1.2,0.3-2.5-1.8-2.4c-2.9,0.1-5.8,0.1-8.7,0
	c-2.2,0-2.2-0.1-2.2-2.3C333.9,385.7,334,383,334,380.3z"/>
<path d="M288.8,272.8c0-2.3,0.1-4.7,0-7c0-1.4,0.6-1.8,1.9-1.7c0.9,0.1,1.3,0.4,1.3,1.3c0,4.4,0,8.8,0,13.1c0,0.9-0.4,1.3-1.3,1.3
	c-0.7,0-1.5-0.1-2.2,0c-1.5,0.2-2.3-0.4-2.9-1.8c-1-2.4-2.3-4.7-3.4-7c-0.3-0.5-0.4-1.2-1.1-1.4c0,2.9,0,5.8,0,8.7
	c0,1-0.3,1.5-1.4,1.5c-1.1,0-1.8-0.2-1.8-1.5c0.1-4.3,0-8.6,0-12.8c0-1.1,0.5-1.4,1.5-1.5c3.5-0.3,3.7-0.2,5.3,2.9
	c1,1.8,2,3.7,3,5.5c0.1,0.2,0.3,0.3,0.4,0.4C288.3,272.8,288.6,272.8,288.8,272.8z"/>
<path d="M412.8,279.5c-0.9,0.5-1.5,0.4-2.1,0.4c-2.3,0-2.5-0.1-2.4-2.2c0.1-2.7-1.6-3.8-3.5-5.3c-0.8,2.5,0,4.9-0.5,7.2
	c-0.2,0.1-0.4,0.3-0.6,0.3c-3.8,0.2-3.8,0.2-3.8-3.5c0-3.2,0-6.5,0-9.7c0-2.6,0-2.6,2.6-2.6c0.6,0,1.3-0.2,2,0.4c0,2.1,0,4.4,0,6.9
	c1.4,0.2,2.9,0.8,3.6-0.8c0.6-1.4,0.4-2.9-0.9-3.9c-0.7-0.6-1.4-1.2-2.2-1.9c2.9-1.1,6.6-0.5,7.5,1.2c1.1,2,0.3,4.8-2,6.7
	C413.7,274,412.1,277.1,412.8,279.5z"/>
<path d="M312.2,278.9c0-4.4,0-8.4,0-12.3c0-2.3,1.3-3.2,3.6-2.4c0.6,0.2,0.8,0.6,0.8,1.2c0,3.9,0.1,7.7,0,11.6
	c0,1.6-1.1,2.6-2.8,2.8c-2.1,0.3-4.2,0.3-6.2,0c-2-0.3-3-1.2-3.1-3.3c-0.1-3.6,0-7.3-0.1-11c0-0.9,0.4-1.4,1.3-1.3
	c0.9,0,1.9-0.2,3,0.3c0,2.8,0.2,5.7,0,8.6C308.4,275.7,309.6,277.3,312.2,278.9z"/>
<path d="M387.8,279.6c-2.6,0.6-4.3,0.3-5.6-1.8c-0.6-1-1.7-1.7-2.6-2.5c-1,0.5-0.9,1.3-0.9,2c-0.3,3-0.7,2.6-3.1,2.6
	c-0.5,0-1-0.1-1.7-0.1c0-2.2,0.7-4.1,1.1-6.1c0.4-2.5,1.1-4.9,1.5-7.3c0.3-1.5,0.8-2.4,2.6-2.2c1.8,0.2,4.1-0.7,5.5,0.4
	c1.3,1,1,3.3,1.4,5C386.6,272.7,387.1,276.1,387.8,279.6z M380.8,265.6c-0.5,2.5-1,4.7-1.4,6.8c-0.2,1.2,0.5,1.4,1.4,1.4
	c1,0,1.7-0.2,1.5-1.4C381.8,270.3,381.8,268.1,380.8,265.6z"/>
<path d="M258.8,264.3c0.6-0.4,1.3-0.2,1.8-0.2c4.6,0.4,4.7,0.5,4.8,5.2c0,2.4,0,4.8,0,7.2c-0.1,2.2-0.8,3.1-2.9,3.4
	c-2.5,0.3-5,0.4-7.4-0.3c-1.6-0.4-2.5-1.3-2.4-3.1c0.1-2.9,0.1-5.8,0.1-8.7c0-0.6,0-1.3,0.2-1.8c0.4-1.1,2.2-2.1,3.3-1.8
	c1.3,0.3,0.8,1.5,0.8,2.3c0.1,3.4,0,6.9,0,10.3c0,1.3,0.3,2.3,1.8,2.4c1.4,0.1,2.1-0.9,2.1-2.2c0.1-2.9,0-5.8,0-8.7
	c0-0.8-0.4-1.4-0.9-1.9C259.6,265.7,258.9,265.2,258.8,264.3z"/>
<path d="M240.8,279.5c-3.9,0.7-3.9,0.7-5.5-2.4c-0.8-1.4-1.3-3-2.6-4.5c-1.1,1.8-0.4,3.6-0.6,5.2c-0.1,0.7,0.3,1.7-0.6,1.9
	c-1.1,0.3-2.3,0.3-3.4-0.1c-0.6-0.2-0.4-0.9-0.4-1.4c0-4.2,0-8.3,0-12.5c0-1.8,1-1.7,2.2-1.7c1.2,0,2.3,0,2.2,1.7
	c-0.1,1.3,0,2.7,0,4.3c1.5-0.8,1.7-2.1,2.3-3.1c1.8-3.1,1.7-3.1,5.5-2.8c-0.6,2-1.8,3.7-2.9,5.4c-0.8,1.2-0.7,2.2,0,3.4
	C238.4,275.1,239.6,277.3,240.8,279.5z"/>
<path d="M334.6,266.9c2.8,1.6,2.8,4.2,2.6,6.8c-0.1,1.6-0.1,3.1,0,4.7c0,1.1-0.4,1.4-1.5,1.5c-2.9,0.2-3.1,0.1-3.1-3
	c0-2.8-0.1-5.6,0-8.4c0.1-1.5-0.3-2.4-2-2.2c-0.7,0.1-1.5,0.1-1.5-1c-0.1-1.3,0.9-1.2,1.7-1.2c2.8,0,5.6,0,8.4,0
	c0.7,0,1.6-0.1,1.6,0.9c0.1,1.2-0.8,1.2-1.7,1.2c-1.4,0-2.9,0-4.3,0C334.8,266.5,334.7,266.7,334.6,266.9z"/>
<path d="M354.5,278.1c2.3,0,4.2,0,6,0c0.6,0,1,0.3,1,0.9c0,0.7-0.5,0.8-1.1,0.8c-0.3,0-0.6,0-0.9,0c-2.3-0.1-5.2,0.9-6.7-0.4
	c-1.6-1.4-0.4-4.3-0.5-6.5c-0.1-2.4,0-4.8,0-7.2c-0.1-1.8,1.1-1.7,2.3-1.7c1.2,0,2.3-0.1,2.2,1.7c-0.1,2.6-0.2,5.2,0,7.8
	C356.9,275.4,355.1,276.1,354.5,278.1z"/>
<path d="M429.8,271.9c0,2-0.1,4,0,5.9c0.1,1.8-1.1,1.6-2.3,1.7c-1.1,0-2.1,0-2-1.6c0.1-4.3,0-8.5,0-12.8c0-1.6,1-1.5,2.1-1.5
	c1.2,0,2.3-0.1,2.2,1.7C429.7,267.5,429.8,269.7,429.8,271.9z"/>
<path d="M426.9,218.2c-0.5,0.1-0.6-0.2-0.6-0.6c0,0-0.1,0.1-0.1,0.1C426.6,217.6,426.8,217.9,426.9,218.2L426.9,218.2z"/>
<path d="M274.1,213.9c3.3,3.1,6.7,6.2,9.9,9.4c1.6,1.6,1.1,8.8-0.4,10.4c-0.7,0.8-1.7,1.3-2.7,1.3c-2,0.1-4,0-5.9,0.1
	c-1.2,0-1.4-0.6-1.4-1.6c0-6.4,0-12.9,0-19.3C273.7,214.1,273.9,214,274.1,213.9z"/>
<path d="M409.7,216.3c1.4,8.2,2.8,16.5,4.3,25c-3.2,0-6.3,0-9.7,0c1.6-8.4,3.2-16.7,4.8-25C409.2,216.3,409.4,216.3,409.7,216.3z"/>
<path d="M380.8,265.6c1,2.5,1.1,4.7,1.5,6.8c0.3,1.2-0.5,1.4-1.5,1.4c-1,0-1.7-0.2-1.4-1.4C379.8,270.3,380.3,268.2,380.8,265.6z"/>
<path d="M426.8,218.3c0-0.4-0.2-0.6-0.6-0.6c0.1-1-0.5-2.3,1.1-3.1C427.2,215.9,428.3,217.2,426.8,218.3z"/>
<path d="M429.3,217.6c-0.1-1,0.1-1.8,1.3-2.6C430.4,216.3,431.8,217.8,429.3,217.6L429.3,217.6z"/>
<path d="M429.3,217.6c0.3,1,0,1.4-1,1.3c-0.8-0.1-0.5-0.7-0.3-1.2C428.4,216.5,428.9,217.5,429.3,217.6
	C429.3,217.6,429.3,217.6,429.3,217.6z"/>
<path d="M401.4,381.3c-5-0.1-4.2,0.7-4.3-4.3c0-0.7,0-1.5,0-2.2c0-0.9,0.4-1.4,1.3-1.4c2.1,0,4.2-0.2,6.2,0.2c2.3,0.5,3.1,1.6,3,4
	c-0.1,2.3-1.1,3.4-3.4,3.6C403.3,381.4,402.4,381.3,401.4,381.3z"/>
<path d="M204.2,375.7c1.6,3,2.3,5.8,3.2,8.6c0.3,0.9-0.2,1.4-1.1,1.4c-1.7,0-3.3,0-5.4,0C201.5,382.1,202.8,379.1,204.2,375.7z"/>
<path d="M131.7,385.3c-2.4,0.5-4.4,0.2-6.8,0.2c0.8-3.5,2-6.5,3.6-10.1C129.8,379.1,131.1,382,131.7,385.3z"/>
</svg>
